<svg xmlns="http://www.w3.org/2000/svg" xmlns:xlink="http://www.w3.org/1999/xlink" version="1.1" x="0px" y="0px" viewBox="0 0 100 100" enable-background="new 0 0 100 100" xml:space="preserve"><path d="M49.5,4.9c-24.8,0-45,20.2-45,45c0,21.9,15.6,40,36.2,44.1c0.4-0.9,0.9-2,1.1-3.1c-0.2-1.1-0.3-2.2-0.6-3.1  c-1-3.2-2.2-6.4-3.4-9.6c-0.6-1.8-2.2-1.8-3.9-1.6c-2.6,0.2-5.4,0.6-8,0.3c-4-0.4-4.9-2.1-4.8-6.1c0.1-1.1-0.2-2.7-0.9-3.5  c-1.4-1.4-0.9-2.4,0-3.6c-0.2,0-0.5-0.1-0.7-0.1c-0.1-1-0.6-2.1-0.4-3c0.4-2.2,0-3-2.2-3.8c-0.7-0.2-1.3-0.4-2-0.8  c-1.8-1-2.2-2.1-1.1-4c1.8-3.2,3.9-6.4,5.7-9.7c0.6-1,0.4-2.6,0.4-3.9c0-1.4-0.7-3-0.4-4.4c0.8-2.8,1.7-5.6,2.9-8.2  c2.8-6.3,8-10.1,14.4-11.8c7.3-2,15-2.8,22.3-0.7c9.7,2.8,20.3,11.3,20.3,23.3c0,4-0.9,8.3-2.6,11.9c-4.9,10.4-5.8,15.2-3.1,26.3  c0,0,0,1,1.7,3.7c0,0,1.8,2.1,4.2,4.9c9.1-8.2,15-20.2,15-33.5C94.4,25,74.3,4.9,49.5,4.9z"></path><path d="M74.8,34.1c0.5-0.3,0.8-0.9,0.8-1.5c0-1-0.8-1.8-1.8-1.8s-1.8,0.8-1.8,1.8c0,0.6,0.3,1.2,0.8,1.5V37L56.3,53.4v-2.1l7.6-7.6  c0.1,0,0.2,0,0.4,0c1,0,1.8-0.8,1.8-1.8s-0.8-1.8-1.8-1.8c-1,0-1.8,0.8-1.8,1.8c0,0.1,0,0.3,0,0.4l-6.2,6.2v-1.9l12.1-12.1v-6.9  c0.5-0.3,0.8-0.9,0.8-1.5c0-1-0.8-1.8-1.8-1.8c-1,0-1.8,0.8-1.8,1.8c0,0.6,0.3,1.2,0.8,1.5v6L54.3,45.8V94c0,0.6,0.4,1,1,1  c0.6,0,1-0.4,1-1V56.3l18.5-18.5V34.1z M64.3,41c0.5,0,0.9,0.4,0.9,0.9s-0.4,0.9-0.9,0.9c-0.5,0-0.9-0.4-0.9-0.9S63.8,41,64.3,41z   M67.4,25.2c0.5,0,0.9,0.4,0.9,0.9c0,0.5-0.4,0.9-0.9,0.9c-0.5,0-0.9-0.4-0.9-0.9C66.5,25.6,66.9,25.2,67.4,25.2z M73.8,33.5  c-0.5,0-0.9-0.4-0.9-0.9c0-0.5,0.4-0.9,0.9-0.9c0.5,0,0.9,0.4,0.9,0.9C74.7,33.1,74.3,33.5,73.8,33.5z"></path><path d="M27.8,36.5l-1.4-1.4c0-0.1,0-0.2,0-0.4c0-1-0.8-1.8-1.8-1.8c-1,0-1.8,0.8-1.8,1.8c0,1,0.8,1.8,1.8,1.8c0.1,0,0.3,0,0.4,0  l1.9,1.9h15.2l7.4,7.4v2.4l-6.8-6.8h-8.2l-0.3-0.3c0-0.1,0-0.2,0-0.4c0-1-0.8-1.8-1.8-1.8c-1,0-1.8,0.8-1.8,1.8c0,1,0.8,1.8,1.8,1.8  c0.1,0,0.3,0,0.4,0l0.8,0.8H42l7.6,7.6V94c0,0.6,0.4,1,1,1c0.6,0,1-0.4,1-1V45.1L43,36.5H27.8z M24.7,35.7c-0.5,0-0.9-0.4-0.9-0.9  c0-0.5,0.4-0.9,0.9-0.9c0.5,0,0.9,0.4,0.9,0.9C25.6,35.3,25.2,35.7,24.7,35.7z M32.5,41.8c-0.5,0-0.9-0.4-0.9-0.9  c0-0.5,0.4-0.9,0.9-0.9s0.9,0.4,0.9,0.9C33.4,41.4,33,41.8,32.5,41.8z"></path><path d="M57,34.7c0,1,0.8,1.8,1.8,1.8c1,0,1.8-0.8,1.8-1.8c0-0.1,0-0.3,0-0.4l2.2-2.2v-9.7c0.5-0.3,0.8-0.9,0.8-1.5  c0-1-0.8-1.8-1.8-1.8c-1,0-1.8,0.8-1.8,1.8c0,0.6,0.3,1.2,0.8,1.5v8.9l-1.6,1.6c-0.1,0-0.2,0-0.4,0C57.8,32.9,57,33.7,57,34.7z   M61.8,19.9c0.5,0,0.9,0.4,0.9,0.9c0,0.5-0.4,0.9-0.9,0.9c-0.5,0-0.9-0.4-0.9-0.9C60.9,20.4,61.3,19.9,61.8,19.9z M58.8,33.8  c0.5,0,0.9,0.4,0.9,0.9s-0.4,0.9-0.9,0.9s-0.9-0.4-0.9-0.9S58.3,33.8,58.8,33.8z"></path><path d="M75.3,44c-1,0-1.8,0.8-1.8,1.8c0,0.1,0,0.3,0,0.4l-1,1h-4.1L59,56.5V94c0,0.6,0.4,1,1,1c0.6,0,1-0.4,1-1V57.4l8.2-8.2h4.1  l1.5-1.5c0.1,0,0.2,0,0.4,0c1,0,1.8-0.8,1.8-1.8C77.2,44.8,76.4,44,75.3,44z M75.3,46.7c-0.5,0-0.9-0.4-0.9-0.9  c0-0.5,0.4-0.9,0.9-0.9c0.5,0,0.9,0.4,0.9,0.9C76.3,46.3,75.9,46.7,75.3,46.7z"></path><path d="M70.1,54.6c-0.6,0-1.2,0.3-1.5,0.8H66l-2.2,2.2V94c0,0.6,0.4,1,1,1c0.6,0,1-0.4,1-1V58.5l1.1-1.1h1.7  c0.3,0.5,0.9,0.8,1.5,0.8c1,0,1.8-0.8,1.8-1.8C71.9,55.5,71.1,54.6,70.1,54.6z M70.1,57.4c-0.5,0-0.9-0.4-0.9-0.9s0.4-0.9,0.9-0.9  c0.5,0,0.9,0.4,0.9,0.9S70.6,57.4,70.1,57.4z"></path><path d="M55.7,40.6c1,0,1.8-0.8,1.8-1.8c0-1-0.8-1.8-1.8-1.8c-1,0-1.8,0.8-1.8,1.8c0,0.2,0,0.4,0.1,0.6l-1.2,1.2l-8-8H29l-2.8-2.8  c0-0.1,0-0.2,0-0.4c0-1-0.8-1.8-1.8-1.8c-1,0-1.8,0.8-1.8,1.8s0.8,1.8,1.8,1.8c0.1,0,0.3,0,0.4,0l3.4,3.4H44l8.8,8.8l2.7-2.7  C55.6,40.5,55.7,40.6,55.7,40.6z M24.4,30.1c-0.5,0-0.9-0.4-0.9-0.9c0-0.5,0.4-0.9,0.9-0.9c0.5,0,0.9,0.4,0.9,0.9  C25.3,29.7,24.9,30.1,24.4,30.1z M54.8,38.7c0-0.5,0.4-0.9,0.9-0.9c0.5,0,0.9,0.4,0.9,0.9c0,0.5-0.4,0.9-0.9,0.9  C55.2,39.6,54.8,39.2,54.8,38.7z"></path><path d="M39.6,17.6c0.6,0,1.2-0.3,1.5-0.8h1.6l7.7,7.7c0,0.1,0,0.2,0,0.4c0,1,0.8,1.8,1.8,1.8c1,0,1.8-0.8,1.8-1.8  c0-1-0.8-1.8-1.8-1.8c-0.1,0-0.3,0-0.4,0l-8.3-8.3h-2.5c-0.3-0.5-0.9-0.8-1.5-0.8c-1,0-1.8,0.8-1.8,1.8  C37.7,16.8,38.5,17.6,39.6,17.6z M52.3,24c0.5,0,0.9,0.4,0.9,0.9c0,0.5-0.4,0.9-0.9,0.9c-0.5,0-0.9-0.4-0.9-0.9  C51.4,24.4,51.8,24,52.3,24z M39.6,14.8c0.5,0,0.9,0.4,0.9,0.9s-0.4,0.9-0.9,0.9c-0.5,0-0.9-0.4-0.9-0.9S39.1,14.8,39.6,14.8z"></path><path d="M27.9,26.9c0.1,0,0.3,0,0.4,0l3.2,3.2h11.9l-6.5-6.5c0-0.1,0-0.2,0-0.4c0-1-0.8-1.8-1.8-1.8c-1,0-1.8,0.8-1.8,1.8  c0,1,0.8,1.8,1.8,1.8c0.1,0,0.3,0,0.4,0l3.1,3.1h-6.2l-2.7-2.7c0-0.1,0-0.2,0-0.4c0-1-0.8-1.8-1.8-1.8c-1,0-1.8,0.8-1.8,1.8  C26.1,26.1,26.9,26.9,27.9,26.9z M35.1,24.2c-0.5,0-0.9-0.4-0.9-0.9c0-0.5,0.4-0.9,0.9-0.9s0.9,0.4,0.9,0.9  C36,23.8,35.6,24.2,35.1,24.2z M27.9,24.2c0.5,0,0.9,0.4,0.9,0.9c0,0.5-0.4,0.9-0.9,0.9c-0.5,0-0.9-0.4-0.9-0.9  C27,24.6,27.4,24.2,27.9,24.2z"></path><path d="M29.5,22.9c1,0,1.8-0.8,1.8-1.8c0-0.1,0-0.3,0-0.4l2.3-2.3h2.1l16.7,16.7l5.3-5.3v-12l-3.1-3.1h-2.4  c-0.3-0.5-0.9-0.8-1.5-0.8c-1,0-1.8,0.8-1.8,1.8c0,1,0.8,1.8,1.8,1.8c0.6,0,1.2-0.3,1.5-0.8h1.6l1.9,1.9V29l-3.3,3.3L36.5,16.4h-3.8  l-2.9,2.9c-0.1,0-0.2,0-0.4,0c-1,0-1.8,0.8-1.8,1.8C27.7,22.1,28.5,22.9,29.5,22.9z M50.7,16.7c-0.5,0-0.9-0.4-0.9-0.9  s0.4-0.9,0.9-0.9c0.5,0,0.9,0.4,0.9,0.9S51.2,16.7,50.7,16.7z M29.5,20.2c0.5,0,0.9,0.4,0.9,0.9c0,0.5-0.4,0.9-0.9,0.9  c-0.5,0-0.9-0.4-0.9-0.9C28.6,20.6,29,20.2,29.5,20.2z"></path></svg>