<svg xmlns="http://www.w3.org/2000/svg" xmlns:xlink="http://www.w3.org/1999/xlink" version="1.1" x="0px" y="0px" viewBox="0 0 100 100" enable-background="new 0 0 100 100" xml:space="preserve"><path fill="#000000" d="M97.211,46.136c-0.083-0.98-0.448-2.705-0.58-3.316c0.163-0.948,0.689-4.537-0.194-6.836  c-0.843-2.187-3.401-4.372-4.298-5.089c-0.289-1.086-1.215-4.219-2.636-6.009c-1.487-1.873-4.774-3.72-5.681-4.209  c-0.275-0.371-0.869-1.145-1.378-1.648c-0.448-0.44-1.854-1.545-2.791-2.268c-0.43-0.332-0.801-0.723-1.113-1.168  c-0.609-0.87-1.655-2.179-2.808-2.808c-1.144-0.625-3.099-0.858-4.538-0.922c-0.287-0.013-0.56-0.114-0.786-0.292  c-1.184-0.931-3.739-2.821-5.819-3.511c-2.536-0.847-7.986-0.548-9.186-0.47c-0.568-0.141-2.245-0.534-3.32-0.547  c-1.002-0.017-3.036,0.531-3.737,0.737c-1.227-0.154-6.541-0.669-10.925,1.333c-6.044,2.758-9.48,7.745-10.124,8.745  c-0.715,0.583-3.813,3.15-5.492,5.321c-1.663,2.144-3.908,6.708-4.452,7.833c-0.921,0.69-4.019,3.095-5.13,5.021  c-1.009,1.748-1.39,4.543-1.511,5.705c-1.118,0.805-3.943,2.953-4.879,4.745c-0.978,1.876-0.973,4.837-0.94,5.827  c-0.49,0.992-2.022,4.225-2.11,5.938c-0.085,1.661,0.746,3.787,1.085,4.574c-0.116,1.112-0.414,4.648,0.175,6.519  c0.673,2.137,2.932,4.514,3.195,4.785c0.175,0.179,4.341,4.388,6.79,5.832c2.006,1.182,5.16,2.093,6.367,2.416  c0.299,0.278,0.748,0.991,0.984,1.337c3.06,4.514,5.7,8.412,11.727,9.074c2.224,0.249,6.567-0.305,7.517-0.435  c0.734,0.136,3.477,0.61,6.044,0.61c0.722,0,1.428-0.038,2.072-0.13c2.903-0.416,6.908-2.354,7.87-2.834  c0.938-0.065,4.445-0.353,6.738-1.157c2.186-0.767,4.964-2.316,8.739-4.875c2.989-2.031,4.566-3.44,7.095-5.758  c0.455-0.416,1.075-0.883,1.771-1.409c1.215-0.919,2.726-2.062,3.99-3.392c1.715-1.802,2.979-3.877,3.403-4.609  c0.585-0.359,1.911-1.242,2.581-2.264c0.632-0.969,0.945-2.424,1.066-3.138c0.741-0.714,2.603-2.699,3.5-5.402  C96.539,54.849,97.328,47.464,97.211,46.136z M88.773,32.354c-0.961-0.796-2.105-1.262-3.223-1.313  c-0.708-0.043-1.384,0.108-1.987,0.387c-0.045,0.021-0.097,0.016-0.137-0.013c-0.04-0.029-0.061-0.077-0.055-0.126  c0.297-2.466,0.192-5.088-0.31-7.464c-0.011-0.051,0.006-0.104,0.044-0.141c0.038-0.036,0.091-0.05,0.142-0.038  c1.166,0.297,2.103,1.019,2.703,1.62c0.898,0.901,1.603,2.026,2.247,3.101c0.305,0.509,0.599,1.011,0.817,1.532  c0.666,1.602,0.821,5.089,0.686,6.405c-0.006,0.058-0.055,0.101-0.113,0.099c-0.028-0.001-0.056-0.001-0.084,0  c-0.625,0.03-1.416,0.129-1.992,0.648c-0.825,0.743-1.089,2.509-1.152,3.932c-0.003,0.07-0.049,0.132-0.115,0.156  c-0.066,0.024-0.141,0.006-0.188-0.047c-0.74-0.81-1.556-1.53-2.467-2.078c-0.23-0.14-0.531-0.065-0.665,0.166  c-0.14,0.23-0.064,0.527,0.163,0.665c2.29,1.377,4.099,3.754,4.966,6.522c0.8,2.565,0.836,5.455,0.099,8.359  c-0.298,1.185-0.644,2.017-1.125,2.694c-0.257,0.361-1.17,1.269-1.721,1.409c-0.072,0.018-0.149-0.001-0.204-0.05  c-0.055-0.05-0.082-0.124-0.072-0.198c0.138-0.985,0.198-1.982,0.1-2.982c-0.305-3.059-1.643-4.321-3.67-5.968  c-0.097-0.079-0.134-0.21-0.092-0.327c0.183-0.518,0.331-1.058,0.412-1.634c0.22-1.56,0.085-3.25-0.419-5.325  c-0.125-0.509-0.276-1.023-0.484-1.509c-0.488-2.218,0.412-4.6,1.271-6.444c0.244-0.517,0.49-1.014,0.834-1.397  c0.594-0.661,1.487-1.031,2.527-0.986c0.907,0.043,1.847,0.43,2.65,1.093c0.206,0.172,0.512,0.143,0.682-0.065  C89.01,32.83,88.982,32.524,88.773,32.354z M76.918,17.551l0.668,0.747c0.05,0.056,0.111,0.098,0.18,0.127  c0.348,0.14,0.707,0.294,1.063,0.46c0.905,0.706,1.811,1.43,2.08,1.697c0.034,0.033,0.073,0.08,0.108,0.117  c0.208,0.364,0.383,0.75,0.519,1.136c1.069,3.009,1.351,7.116,0.738,10.501c-0.004,0.004-0.009,0.007-0.013,0.011  c-0.433,0.482-0.718,1.048-0.992,1.635c-0.663,1.424-1.351,3.155-1.484,4.944c-0.005,0.069-0.047,0.129-0.109,0.158  c-0.062,0.029-0.136,0.022-0.192-0.018c-0.488-0.353-1.032-0.6-1.541-0.809c-0.064-0.026-0.108-0.085-0.117-0.153  c-0.494-3.996-2.622-7.948-5.537-10.633c-0.037-0.034-0.05-0.088-0.031-0.136c0.143-0.366,0.218-0.835,0.24-1.359  c0.004-0.091,0.053-0.175,0.131-0.222c0.33-0.2,0.755-0.298,1.242-0.374c0.933-0.146,1.845-0.265,2.738-0.184  c0.947,0.09,1.764,0.43,2.304,0.957c0.095,0.092,0.216,0.139,0.339,0.139c0.126,0,0.251-0.05,0.346-0.147  c0.189-0.191,0.185-0.498-0.007-0.686c-0.893-0.873-2.063-1.15-2.889-1.229c-1.014-0.092-1.985,0.037-2.977,0.191  c-0.391,0.061-0.768,0.138-1.12,0.266c-0.03,0.011-0.063,0.007-0.09-0.01c-0.027-0.017-0.044-0.046-0.047-0.077  c-0.02-0.25-0.047-0.494-0.077-0.731c-0.01-0.083,0.019-0.166,0.08-0.223c0.16-0.151,0.33-0.293,0.501-0.434  c0.372-0.304,0.753-0.619,1.061-1.031c0.194-0.26,0.348-0.548,0.5-0.838l1.044-1.993c0.126-0.237,0.033-0.531-0.204-0.655  c-0.234-0.124-0.53-0.033-0.654,0.205l-1.044,1.993c-0.128,0.243-0.253,0.488-0.419,0.708c-0.237,0.319-0.559,0.583-0.9,0.862  c-0.005,0.004-0.011,0.009-0.016,0.013c-0.033,0.028-0.078,0.037-0.119,0.023c-0.041-0.014-0.072-0.048-0.081-0.09  c-0.037-0.163-0.071-0.299-0.101-0.387c-0.497-1.475-1.797-2.439-2.977-3.227c-0.223-0.147-0.526-0.089-0.673,0.135  c-0.149,0.223-0.09,0.523,0.133,0.673c1.047,0.697,2.198,1.543,2.598,2.729c0.282,0.837,0.534,3.091,0.366,4.231  c-0.006,0.043-0.036,0.08-0.076,0.096c-0.041,0.016-0.087,0.01-0.122-0.017c-0.841-0.657-1.724-1.231-2.652-1.646  c-0.251-0.109-0.533,0-0.642,0.245c-0.109,0.244,0,0.532,0.244,0.641c4.186,1.871,7.606,6.62,8.49,11.564  c0.012,0.068-0.014,0.138-0.068,0.181s-0.127,0.055-0.192,0.029l-1.244-0.506c-0.242-0.103-0.528,0.018-0.632,0.266  c-0.099,0.247,0.019,0.531,0.268,0.631l2.603,1.059c0.639,0.26,1.3,0.529,1.781,0.985c0.612,0.581,0.977,1.673,1.177,2.485  c0.476,1.95,0.604,3.525,0.4,4.959c-0.244,1.75-1.011,3.241-2.16,4.199c-0.206,0.172-0.234,0.478-0.062,0.683  c0.095,0.116,0.232,0.175,0.372,0.175c0.109,0,0.22-0.038,0.31-0.112c0.602-0.502,1.11-1.126,1.514-1.84  c0.028-0.05,0.078-0.085,0.135-0.096c0.057-0.01,0.115,0.005,0.16,0.042c1.924,1.591,2.831,2.633,3.076,5.11  c0.268,2.703-0.443,5.549-1.949,7.807c-0.657,0.983-1.734,1.758-2.846,2.127c-0.039,0.013-0.082,0.004-0.113-0.023  c-0.031-0.027-0.046-0.068-0.038-0.109c0.192-1.019,0.276-2.067,0.143-3.116c-0.262-2.036-1.601-4.412-3.933-5.035  c-0.158-0.042-0.278-0.173-0.305-0.334c-0.221-1.279-1.001-2.438-2.138-3.072c-0.086-0.048-0.14-0.139-0.14-0.237  c-0.001-0.127-0.002-0.254-0.004-0.381c-0.001-0.045,0.024-0.087,0.063-0.109c0.04-0.022,0.088-0.019,0.126,0.006  c0.517,0.347,1.144,0.588,1.899,0.69c0.192,0.026,0.372,0.039,0.542,0.039c0.564,0,1.011-0.142,1.359-0.429  c0.206-0.169,0.237-0.475,0.066-0.682c-0.17-0.21-0.478-0.238-0.682-0.066c-0.232,0.191-0.623,0.253-1.156,0.176  c-0.744-0.101-1.336-0.34-1.762-0.707c-0.297-0.259-0.459-0.598-0.562-0.989c-0.029-0.374-0.061-0.739-0.092-1.093l-0.369-4.218  c-0.013-0.151-0.029-0.303-0.047-0.456c-0.008-0.074,0.021-0.148,0.078-0.195c0.057-0.048,0.135-0.064,0.207-0.042  c0.283,0.085,0.579,0.125,0.877,0.125c0.715,0,1.435-0.214,1.973-0.513c0.957-0.534,1.601-1.587,1.644-2.682  c0.009-0.268-0.199-0.494-0.467-0.503c-0.303-0.009-0.493,0.198-0.504,0.465c-0.028,0.765-0.478,1.5-1.146,1.872  c-0.746,0.417-1.785,0.605-2.34,0.22c-0.835-0.579-1.625-2.919-1.895-3.378l-1.511-2.561c-0.276-0.469-0.574-0.942-0.918-1.392  c-0.031-0.041-0.033-0.096-0.006-0.139c0.028-0.043,0.08-0.064,0.13-0.052c0.121,0.028,0.241,0.051,0.359,0.051  c0.649,0,1.267-0.194,1.793-0.586c0.682-0.513,1.779-2.152,1.546-3.141c-0.059-0.259-0.306-0.423-0.583-0.361  c-0.26,0.062-0.422,0.322-0.36,0.584c0.107,0.459-0.654,1.743-1.186,2.142c-0.642,0.484-1.861,0.674-3.185-0.381  c-0.227-0.181-0.464-0.343-0.701-0.504c-0.633-0.434-1.179-0.85-1.696-1.461c-0.509-0.604-1.037-1.229-1.648-1.775  c-0.461-0.413-0.96-0.749-1.475-1.048c-0.113-0.066-0.183-0.186-0.184-0.317c-0.014-1.245,0.071-2.411,0.729-3.245  c1.961-2.49,3.091-2.508,5.286-2.328c0.265,0.011,0.5-0.175,0.523-0.443c0.024-0.266-0.175-0.501-0.443-0.523  c-2.328-0.202-3.87-0.173-6.129,2.694c-0.102,0.129-0.187,0.265-0.263,0.404c-0.026,0.047-0.08,0.072-0.133,0.062  c-0.053-0.011-0.093-0.055-0.098-0.108c-0.262-2.532-0.322-5.217,0.454-7.108c0.076-0.185,0.197-0.349,0.352-0.476  c0.237-0.194,0.471-0.389,0.7-0.583c0.493-0.42,0.988-0.841,1.509-1.226C68.069,13.668,74.034,12.62,76.918,17.551z M67.078,67.459  c-0.744-0.039-1.383,0.321-2.049,1.078c-1.104,1.256-1.61,4.678-1.48,5.455c0.04,0.238,0.244,0.406,0.478,0.406  c0.026,0,0.052-0.002,0.081-0.007c0.263-0.044,0.443-0.294,0.398-0.558c-0.064-0.391,0.132-1.866,0.519-3.107  c0.018-0.058,0.063-0.104,0.121-0.122c0.058-0.019,0.121-0.008,0.17,0.029c1.39,1.046,1.657,2.941,1.246,4.444  c-0.59,2.168-2.423,3.726-3.855,4.651c-1.996,1.291-4.003,2.068-6.087,2.412c-0.049,0.008-0.098-0.014-0.124-0.055  c-0.027-0.041-0.026-0.095,0.002-0.136c0.75-1.115,1.314-2.388,1.613-3.758c0.545-2.496,0.249-5.293-0.79-7.958  c-0.051-0.131,0.006-0.278,0.131-0.341c0.294-0.148,0.573-0.327,0.827-0.554c0.943-0.841,1.3-2.011,1.433-2.844  c0.007-0.044,0.011-0.088,0.014-0.132c0.009-0.173,0.126-0.323,0.292-0.374c1.321-0.411,2.627-0.896,3.886-1.449l2.359-1.046  c0.909-0.296,1.246-0.49,2.847,0.806c1.731,1.402,2.109,5.28,1.215,6.764c-0.14,0.23-0.066,0.528,0.163,0.667  c0.078,0.047,0.166,0.07,0.251,0.07c0.163,0,0.324-0.084,0.414-0.234c0.298-0.494,0.446-1.03,0.526-1.581  c0.009-0.063,0.051-0.116,0.11-0.139c0.059-0.023,0.126-0.012,0.175,0.029c0.568,0.47,1.241,0.748,1.927,0.762  c0.002,0,0.007,0,0.009,0c0.263,0,0.481-0.211,0.485-0.476c0.005-0.268-0.208-0.489-0.476-0.495  c-0.68-0.013-1.393-0.435-1.859-1.101c-0.185-0.264-0.288-0.454-0.365-0.648c-0.081-0.603-0.194-1.202-0.341-1.774  c-0.298-1.164-0.567-1.644-1.181-2.207c-0.05-0.046-0.074-0.113-0.065-0.18c0.009-0.067,0.05-0.126,0.109-0.157  c0.046-0.024,0.094-0.05,0.144-0.078l0.353-0.192c0.926-0.487,1.992-1.102,2.861-1.973c0.829-0.822,1.369-1.798,1.572-2.783  c0.015-0.07,0.059-0.131,0.122-0.165c0.063-0.035,0.137-0.04,0.205-0.016c1.657,0.612,2.721,2.444,2.937,4.115  c0.265,2.088-0.424,4.262-1.092,6.136c-0.135,0.38-0.251,0.694-0.429,0.972c-0.336,0.54-0.902,0.945-1.452,1.313  c-2.842,1.903-5.222,2.792-7.484,2.792c-0.023,0-0.046-0.001-0.069-0.003c-0.095-0.008-0.169-0.085-0.172-0.18  c-0.05-1.538-0.696-3.051-2.06-3.909c-0.074-0.047-0.096-0.144-0.051-0.218c0.053-0.087,0.108-0.167,0.165-0.232  c0.459-0.522,0.857-0.773,1.258-0.75c0.256-0.03,0.495-0.187,0.514-0.454C67.549,67.707,67.346,67.477,67.078,67.459z   M64.836,48.041c-0.045-0.085-0.112-0.15-0.164-0.23c0.393,0.041,0.785,0.095,1.184,0.095c0.033,0,0.069,0,0.102,0  c1.468-0.017,2.759-0.393,3.737-1.091c0.218-0.155,0.268-0.458,0.114-0.676c-0.154-0.217-0.457-0.27-0.677-0.112  c-1.03,0.734-2.3,0.899-3.183,0.908c-0.031,0.001-0.062,0.001-0.092,0.001c-0.908,0-1.823-0.152-2.726-0.32  c-0.043-0.012-0.087-0.014-0.131-0.024c-0.191-0.036-0.385-0.066-0.574-0.103c-0.792-0.153-1.584-0.349-2.122-0.775  c-0.215-0.17-0.298-0.458-0.208-0.717c0.337-0.967,0.361-1.992,0.035-2.885c-0.137-0.379-0.327-0.706-0.561-0.974  c-0.139-0.159-0.293-0.293-0.453-0.414c-0.07-0.054-0.092-0.15-0.051-0.229c0.099-0.189,0.203-0.476,0.286-0.656  c0.707-1.524,1.908-2.834,3.37-3.656c0.234-0.131,0.317-0.426,0.187-0.661c-0.133-0.234-0.433-0.317-0.661-0.185  c-1.805,1.013-3.245,2.69-3.992,4.618c-0.014,0.035-0.043,0.063-0.079,0.074c-0.036,0.012-0.075,0.006-0.107-0.014  c-0.059-0.038-0.116-0.077-0.17-0.121c-0.381-0.311-0.684-0.725-1.007-1.164c-0.22-0.301-0.44-0.602-0.689-0.876  c-0.073-0.082-0.157-0.149-0.24-0.217c-0.09-0.074-0.144-0.184-0.149-0.3c-0.064-1.765,0.207-3.574,0.787-5.247  c0.09-0.252-0.045-0.529-0.298-0.617c-0.258-0.086-0.531,0.046-0.616,0.3c-0.51,1.466-0.781,3.03-0.828,4.586  c-0.002,0.068-0.041,0.13-0.102,0.16c-0.06,0.031-0.133,0.026-0.189-0.012c-0.231-0.158-0.464-0.312-0.697-0.46  c-0.332-0.211-0.663-0.42-0.98-0.645c-0.874-0.615-1.937-1.604-2.039-2.831c-0.024-0.266-0.216-0.495-0.523-0.443  c-0.268,0.023-0.464,0.257-0.443,0.523c0.107,1.285,0.931,2.477,2.446,3.544c0.332,0.233,0.675,0.451,1.018,0.67  c0.793,0.506,1.546,0.984,2.134,1.638c0.227,0.251,0.426,0.527,0.628,0.8c0.341,0.469,0.696,0.953,1.177,1.344  c0.22,0.179,0.459,0.332,0.701,0.483c0.324,0.204,0.63,0.396,0.85,0.647c0.156,0.178,0.284,0.403,0.381,0.667  c0.374,1.034,0.133,2.316-0.632,3.348c-1.141,1.536-2.167,2.496-3.05,2.852c0,0,0,0-0.001,0c-0.509,0.1-1.041,0.237-1.662,0.463  c-1.232,0.449-2.378,1.036-3.427,1.724c-0.035,0.023-0.08,0.024-0.115,0.003c-0.036-0.021-0.057-0.061-0.054-0.103  c0.092-1.224,0.041-2.54-0.548-3.72c-0.121-0.243-0.417-0.342-0.649-0.217c-0.242,0.12-0.339,0.411-0.218,0.65  c0.597,1.198,0.523,2.659,0.374,3.957c-0.024,0.213-0.129,0.408-0.293,0.546c-0.431,0.362-0.841,0.742-1.216,1.145  c-1.745,1.88-2.896,4.22-3.244,6.593l-0.031,0.223c-0.047,0.36-0.092,0.7-0.211,1.001c-0.175,0.448-0.523,0.828-0.89,1.23  c-0.263,0.287-0.535,0.583-0.76,0.922c-0.45,0.673-0.661,1.431-0.8,2.048c-0.165-0.189-0.364-0.37-0.6-0.548  c-0.926-0.699-2.072-1.099-3.228-1.125c-0.294-0.058-0.488,0.204-0.497,0.472c-0.005,0.269,0.206,0.49,0.474,0.496  c0.954,0.022,1.902,0.353,2.669,0.931c0.341,0.259,0.573,0.515,0.706,0.784c0.14,0.284,0.174,0.62,0.176,0.969  c-0.248,2.816,0.258,5.8,1.47,8.586c0.031,0.072,0.016,0.157-0.04,0.213c-0.056,0.056-0.14,0.073-0.213,0.042  c-0.184-0.078-0.373-0.149-0.57-0.204c-0.94-0.262-1.918-0.313-2.835-0.33c-1.054-0.019-2.11-0.001-3.154,0.062  c-0.402,0.023-0.811,0.082-1.213,0.182c0.467-1.316,0.689-2.707,0.882-3.983c0.038-0.265-0.144-0.513-0.41-0.552  c-0.272-0.044-0.509,0.142-0.552,0.407c-0.25,1.67-0.531,3.381-1.303,4.864c-0.585,0.687-1.184,1.486-1.682,2.007  c-0.767,0.553-1.683,0.891-2.655,0.758c-1.052-0.142-2.058-0.843-2.695-1.877c-0.559-0.909-0.855-2.088-0.857-3.407  c-0.005-2.272,0.848-4.558,2.337-6.269c1.102-1.268,2.627-2.325,4.617-3.235c0.266,0.605,0.619,1.162,1.012,1.679  c0.542,0.716,1.056,1.393,1.134,2.174c0.026,0.25,0.237,0.437,0.483,0.437c0.017,0,0.033-0.001,0.05-0.002  c0.265-0.027,0.459-0.265,0.433-0.532c-0.107-1.053-0.729-1.872-1.329-2.663c-0.5-0.658-0.971-1.28-1.123-1.99  c-0.152-0.727,0.05-1.519,0.289-2.266c0.547-1.703,1.866-2.616,1.992-2.899c0.109-0.244,0-0.53-0.244-0.641  c-0.661-0.295-2.379,2.337-2.671,3.242c-0.257,0.804-0.458,1.664-0.337,2.533c-2.166,0.979-3.826,2.131-5.039,3.526  c-1.242,1.425-2.057,3.212-2.388,5.079c-0.011,0.065-0.057,0.118-0.12,0.14c-0.062,0.021-0.131,0.007-0.18-0.037  c-0.501-0.455-0.917-1.012-1.239-1.629c-0.29-0.555-0.433-1.165-0.422-1.791c0.031-1.67,0.132-3.349,0.526-4.932  c0.158-0.361,0.327-0.727,0.529-1.114c2.855-5.449,7.232-9.049,12.365-10.231c0.043-0.01,0.089-0.001,0.125,0.025  c0.036,0.025,0.06,0.065,0.065,0.109c0.047,0.422,0.133,0.844,0.263,1.258c0.504,1.607,1.629,3.111,3.164,4.233  c0.088,0.063,0.187,0.094,0.287,0.094c0.149,0,0.296-0.07,0.391-0.199c0.159-0.217,0.111-0.52-0.104-0.679  c-1.371-1.001-2.368-2.329-2.813-3.739c-0.486-1.558-0.294-3.226,0.519-4.459c0.576-0.87,1.416-1.516,2.309-2.198  c0.098-0.075,0.192-0.153,0.289-0.229c0.075-0.012,0.152-0.024,0.218-0.072c0.585-0.436,1.449-0.406,2.297-0.371l0.251,0.008  c1.539,0.054,2.811-0.133,3.927-0.552c0.251-0.094,0.379-0.374,0.284-0.624c-0.095-0.25-0.374-0.378-0.625-0.283  c-0.997,0.374-2.186,0.534-3.552,0.49l-0.246-0.009c-0.317-0.012-0.647-0.015-0.979-0.004c1.047-1.16,1.559-2.401,1.401-3.583  c-0.036-0.265-0.289-0.452-0.545-0.417c-0.265,0.036-0.452,0.279-0.417,0.545c0.204,1.52-1.096,2.868-1.888,3.537  c-0.324,0.274-0.663,0.533-1.002,0.792c-0.919,0.702-1.866,1.427-2.532,2.436c-0.525,0.797-0.811,1.745-0.892,2.733  c-0.006,0.068-0.055,0.125-0.122,0.139c-1.692,0.361-3.318,0.997-4.853,1.86c-0.052,0.029-0.116,0.026-0.165-0.008  c-0.049-0.034-0.074-0.093-0.065-0.152c0.299-1.897,0.86-4.12,1.961-5.753l0.208-0.309c1.715-2.554,4.578-6.785,9.88-6.568  c0.284-0.001,0.495-0.194,0.509-0.461c0.012-0.268-0.194-0.495-0.462-0.508c-0.829-0.039-1.584,0.047-2.301,0.194  c-0.094,0.019-0.192-0.007-0.263-0.071c-0.072-0.064-0.109-0.157-0.101-0.253c0.101-1.186-0.299-1.754,0.586-3.31  c0.211-0.373,0.485-0.713,0.789-1.087c0.561-0.693,1.196-1.479,2.022-1.857c0.297-0.137,0.622-0.222,0.966-0.295  c0.085-0.018,0.174,0.003,0.243,0.056c0.069,0.054,0.11,0.135,0.113,0.222c0.014,0.414,0.053,0.849,0.135,1.283  c0.207,1.109,0.709,2.193,1.459,3.27c0.068,0.097,0.137,0.194,0.209,0.291c0.105,0.141,0.163,0.31,0.169,0.485  c0.041,1.171,1.07,4.006,2.111,4.931c0.092,0.082,0.208,0.123,0.322,0.123c0.133,0,0.268-0.056,0.362-0.163  c0.178-0.2,0.161-0.507-0.04-0.684c-0.484-0.431-1.012-1.515-1.374-2.59c-0.018-0.053,0.003-0.111,0.051-0.141  c0.047-0.029,0.109-0.022,0.149,0.017c0.236,0.237,0.48,0.474,0.755,0.711c1.241,1.068,2.584,2.034,3.995,2.873  c0.078,0.046,0.163,0.069,0.249,0.069c0.166,0,0.327-0.085,0.417-0.238c0.137-0.23,0.062-0.528-0.168-0.664  c-1.364-0.81-2.662-1.743-3.858-2.774c-2.238-1.923-3.498-3.786-3.855-5.694c-0.144-0.771-0.163-1.613-0.057-2.729  c0.112-1.176,0.345-2.155,0.678-2.988c0.074-0.185,0.212-0.342,0.387-0.437c0.497-0.27,1.018-0.51,1.539-0.751  c1.298-0.602,2.643-1.223,3.761-2.29c0.196-0.186,0.366-0.394,0.544-0.596c0.047-0.009,0.092-0.019,0.138-0.029  c0.041-0.009,0.085,0.002,0.117,0.03c0.032,0.028,0.048,0.07,0.044,0.112c-0.052,0.534-0.06,1.071,0.01,1.603  c0.033,0.244,0.242,0.422,0.481,0.422c0.021,0,0.043-0.002,0.064-0.005c0.265-0.036,0.452-0.279,0.417-0.545  c-0.138-1.038,0.022-2.101,0.392-3.084c0.059-0.157,0.163-0.294,0.298-0.393c0.657-0.48,1.389-0.898,2.182-1.305  c1.182-0.606,1.485-0.787,1.919-1.058c0.037-0.023,0.085-0.022,0.12,0.003c0.036,0.025,0.054,0.07,0.044,0.112  c-0.596,2.785-0.091,6.625,0.239,9.061c0.006,0.045-0.012,0.09-0.048,0.119c-0.036,0.028-0.084,0.036-0.127,0.019  c-2.259-0.883-4.709-1.016-6.631-0.901c-0.268,0.017-0.471,0.246-0.455,0.513c0.014,0.266,0.208,0.446,0.512,0.456  c2.641-0.157,6.335,0.136,8.905,2.433c0.561,0.501,1.044,1.073,1.554,1.679c0.528,0.625,1.075,1.272,1.712,1.831  c0.23,0.2,0.469,0.388,0.708,0.576c0.374,0.294,0.727,0.57,1.035,0.89c0.502,0.525,0.886,1.179,1.258,1.812l1.509,2.56  c0.417,0.707,0.845,1.438,1.092,2.201c0.253,0.787,0.327,1.647,0.4,2.478c0.588,6.711,1.021,9.877-0.343,12.849  c-0.111,0.244-0.005,0.532,0.239,0.643c0.064,0.031,0.133,0.045,0.201,0.045c0.182,0,0.36-0.105,0.44-0.283  c0.583-1.271,0.848-2.642,0.949-4.013c0.004-0.054,0.038-0.102,0.089-0.123c0.05-0.021,0.108-0.012,0.15,0.024  c0.823,0.707,1.33,1.804,1.216,2.878c-0.095,0.906-0.58,1.838-1.369,2.622c-0.779,0.779-1.767,1.348-2.626,1.801l-0.369,0.2  c-0.221,0.122-0.353,0.19-0.507,0.232c-0.232,0.062-0.479,0.024-0.681-0.106c-0.76-0.488-1.259-0.581-1.871-0.467  c-0.071,0.013-0.144-0.013-0.19-0.07c-0.046-0.056-0.057-0.133-0.03-0.2c0.564-1.397,0.439-3.099-0.126-4.437  c-0.332-0.782-0.739-1.346-1.246-1.726c-0.118-0.089-0.242-0.162-0.369-0.226c-0.159-0.081-0.232-0.268-0.167-0.434  c0.053-0.136,0.095-0.275,0.131-0.411c0.351-1.353,0.526-2.75,0.523-4.148C65.352,49.903,65.293,48.904,64.836,48.041z   M24.857,53.136c-0.51-0.979-1.374-1.753-2.379-2.208c-0.053-0.024-0.093-0.068-0.112-0.122c-0.019-0.054-0.015-0.114,0.01-0.165  c0.097-0.193,0.195-0.386,0.3-0.574c0.018-0.032,0.054-0.05,0.091-0.045c0.037,0.005,0.066,0.032,0.075,0.068  c0.099,0.402,0.263,0.774,0.499,1.047c0.459,0.526,1.186,0.842,2.001,0.864c0.254,0.007,0.517-0.027,0.783-0.083  c0.034-0.007,0.069,0.006,0.09,0.033c0.021,0.027,0.025,0.064,0.009,0.095c-0.234,0.463-0.472,0.927-0.703,1.387l-0.206,0.411  c-0.017,0.033-0.051,0.052-0.087,0.049s-0.068-0.027-0.079-0.062C25.068,53.593,24.974,53.359,24.857,53.136z M39.779,39.705  c0.036,0.197-0.073,0.391-0.26,0.463c-3.452,1.329-5.545,4.443-6.828,6.353l-0.206,0.307c-1.365,2.022-1.972,4.848-2.245,6.992  c-0.024,0.192-0.129,0.366-0.287,0.478c-1.165,0.82-2.254,1.792-3.261,2.885c-0.052,0.057-0.138,0.066-0.202,0.023  c-0.064-0.044-0.085-0.128-0.051-0.197l1.247-2.486c2.184-4.355,4.445-8.859,7.453-12.742c1.16-1.498,2.451-2.924,3.829-4.234  l0.324-0.305c0.178-0.166,0.357-0.335,0.535-0.508c0.034-0.033,0.085-0.039,0.125-0.015c0.04,0.024,0.06,0.072,0.047,0.117  C39.866,37.329,39.638,38.945,39.779,39.705z M49.636,9.896c0.388-0.214,0.803-0.381,1.23-0.501c0.023-0.005,0.046-0.01,0.069-0.014  c0.367-0.098,0.746-0.128,1.125-0.155c0.673,0.007,1.837,0.251,2.55,0.418c0.301,0.126,0.614,0.227,0.885,0.411  c0.147,0.098,0.339,0.107,0.495,0.03c0.366-0.19,0.761-0.313,1.165-0.396c0.157-0.005,0.319-0.009,0.486-0.013  c0.079-0.002,0.15,0.05,0.171,0.127c0.022,0.077-0.012,0.158-0.08,0.197c-0.72,0.417-1.239,0.95-1.506,1.577  c-0.032,0.074-0.109,0.117-0.189,0.103c-0.469-0.08-0.965-0.132-1.495-0.137c-0.732-0.007-1.691,0.015-2.605,0.264  c-0.184,0.05-0.366,0.116-0.546,0.191c-0.1,0.042-0.216-0.001-0.264-0.098c-0.309-0.615-1.004-1.308-1.514-1.718  c-0.046-0.036-0.07-0.093-0.065-0.15C49.552,9.976,49.585,9.924,49.636,9.896z M31.828,15.766c0.256-0.262,0.515-0.525,0.806-0.797  c0.23-0.203,0.458-0.389,0.673-0.55c1.478-1.101,3.207-1.897,4.881-2.667c0.628-0.289,1.384-0.606,2.182-0.896  c0.074-0.027,0.156-0.001,0.202,0.063c0.045,0.064,0.042,0.151-0.008,0.211c-0.162,0.196-0.313,0.401-0.445,0.62  c-0.14,0.23-0.066,0.528,0.163,0.667c0.225,0.137,0.526,0.063,0.665-0.165c0.519-0.857,1.305-1.555,2.211-2.013  c0.541-0.273,1.126-0.418,1.732-0.431c0.661-0.014,1.257-0.003,1.759,0.022c0.263,0.013,0.52,0.063,0.769,0.149  c1.492,0.514,2.028,1.282,2.848,2.381c0.033,0.044,0.047,0.1,0.039,0.155s-0.038,0.104-0.083,0.136  c-0.304,0.221-0.592,0.476-0.864,0.753c-0.056,0.057-0.144,0.068-0.213,0.027c-2.129-1.279-4.759-1.213-6.556-1.041  c-0.933,0.089-1.914,0.233-2.785,0.681c-0.618,0.319-1.156,0.785-1.587,1.16c-0.245,0.213-0.476,0.44-0.711,0.664  c-0.165,0.158-0.369,0.265-0.593,0.312c-0.008,0.002-0.017,0.004-0.025,0.007c-1.767,0.584-4.13,1.446-5.75,2.096  c-0.105,0.042-0.208,0.086-0.311,0.13c-0.038,0.016-0.082,0.007-0.11-0.024c-0.028-0.031-0.033-0.076-0.012-0.112  C31.03,16.729,31.421,16.217,31.828,15.766z M23.034,25.281c1.144-1.651,2.488-2.984,3.934-3.955  c0.033-0.022,0.076-0.022,0.109,0.001c0.033,0.023,0.048,0.063,0.039,0.102c-0.056,0.239-0.099,0.48-0.11,0.724  c-0.059,1.355,0.542,2.638,1.518,3.478c0.023,0.02,0.036,0.049,0.033,0.079s-0.018,0.058-0.043,0.075  c-0.142,0.094-0.273,0.196-0.392,0.307c-0.027,0.025-0.067,0.033-0.101,0.019c-1.117-0.435-2.493-0.249-3.703,0.524  c-0.882,0.563-1.605,1.373-2.273,2.222c-0.447,0.568-0.729,0.947-1.148,1.536L19.98,31.68c-0.011,0.015-0.028,0.024-0.047,0.024  c-0.027,0-0.057,0-0.088,0c-0.025,0-0.048-0.012-0.061-0.032c-0.014-0.02-0.016-0.046-0.007-0.069  C20.47,29.895,21.623,27.317,23.034,25.281z M13.324,39.333c0.537-1.37,1.258-2.708,2.142-3.833c0.843-0.842,1.838-1.68,2.605-2.284  c0.281-0.144,0.563-0.266,0.845-0.352c0.039-0.012,0.082,0.002,0.106,0.035c0.024,0.033,0.025,0.078,0.002,0.112  c-0.865,1.254-1.705,2.526-2.509,3.816c-0.656,1.056-1.243,2.104-1.239,3.312c0.001,0.341,0.088,0.721,0.209,1.113  c0.009,0.028,0.004,0.058-0.012,0.083c-0.017,0.024-0.043,0.04-0.072,0.042c-0.812,0.065-1.602,0.266-2.373,0.565  c-0.031,0.012-0.067,0.007-0.094-0.013c-0.027-0.021-0.041-0.054-0.037-0.087C12.968,41.183,13.106,40.252,13.324,39.333z   M7.28,49.128c0.349-0.938,0.83-1.866,1.5-2.703c0.47-0.587,0.956-1.084,1.449-1.545c0.308-0.258,0.609-0.501,0.897-0.724  c1.407-1.074,2.89-1.713,4.449-1.82c0.186-0.013,0.361,0.09,0.441,0.259c0.132,0.282,0.272,0.562,0.417,0.837  c0.071,0.134,0.07,0.294-0.002,0.427c-0.787,1.457-1.465,2.88-1.876,4.349c-0.017,0.063-0.074,0.107-0.139,0.11  c-1.815,0.067-3.912,1.641-4.699,2.555c-0.995,1.16-0.975,0.574-2.553,1.648c-0.015,0.01-0.035,0.012-0.052,0.004  c-0.017-0.008-0.028-0.025-0.029-0.043C7.048,51.855,7.054,50.418,7.28,49.128z M6.194,54.684c0.646-0.8,1.469-1.459,2.405-1.874  c0.048-0.021,0.105-0.014,0.146,0.019s0.061,0.086,0.051,0.138c-0.24,1.26-0.016,2.611,0.77,3.633  c0.012,0.016,0.036,0.01,0.049,0.024c-0.047,0.12-0.106,0.248-0.149,0.362c-0.807,2.18-1.271,4.495-1.401,6.823  c-0.004,0.06-0.038,0.114-0.091,0.141c-0.053,0.028-0.117,0.025-0.168-0.007c-0.722-0.452-1.343-1.062-1.836-1.762  c-0.303-0.662-1.069-2.619-1.008-3.823C5.001,57.596,5.588,56.053,6.194,54.684z M10.893,73.765c0.002,0.063-0.03,0.122-0.086,0.154  c-0.055,0.031-0.122,0.029-0.176-0.005c-0.992-0.637-1.882-1.52-2.608-2.627C7.179,70,6.546,68.441,6.092,66.52  c-0.091-0.387-0.165-0.813-0.2-1.245c0.015-0.429,0.036-0.847,0.062-1.225c0.012-0.063,0.056-0.113,0.115-0.132  c0.059-0.019,0.123-0.005,0.168,0.038c0.51,0.476,1.081,0.882,1.709,1.185c0.059,0.028,0.096,0.088,0.096,0.152  c0.001,0.551-0.001,1.102,0.042,1.65c0.166,2.108,0.804,4.823,2.751,6.4c0.043,0.035,0.067,0.088,0.062,0.143  C10.891,73.577,10.889,73.67,10.893,73.765z M20.414,79.606c0,0.03-0.012,0.058-0.034,0.079c-0.022,0.02-0.051,0.031-0.081,0.029  c-0.746-0.051-1.485-0.273-2.141-0.643c-0.059-0.033-0.089-0.1-0.076-0.166c0.013-0.066,0.067-0.116,0.134-0.125  c0.725-0.094,1.416-0.277,2.046-0.644c0.034-0.02,0.075-0.02,0.109,0c0.034,0.02,0.054,0.056,0.054,0.095L20.414,79.606z   M20.434,76.762c0,0.009-0.004,0.018-0.01,0.025c-0.151,0.158-0.317,0.302-0.499,0.423c-0.943,0.623-2.179,0.691-3.469,0.71  c-0.077,0.002-0.153,0.003-0.228,0.004c-0.917,0.003-1.803-0.302-2.527-0.866c-0.1-0.078-0.201-0.159-0.304-0.242  c-0.584-0.681-1.176-1.647-1.424-2.468c-0.019-0.063,0-0.131,0.049-0.175c0.049-0.044,0.118-0.056,0.179-0.031  c1.157,0.479,2.425,0.61,3.564,0.67c0.282,0.015,0.568,0.027,0.855,0.027c0.644,0,1.295-0.062,1.916-0.29  c0.611-0.225,1.194-0.609,1.838-1.209c0.015-0.015,0.028-0.03,0.04-0.046c0.006-0.009,0.018-0.012,0.028-0.008  c0.01,0.004,0.017,0.013,0.017,0.024L20.434,76.762z M20.481,69.903l-0.007,0.98c-0.004,0.663-0.281,1.294-0.765,1.747  c-0.545,0.509-1.025,0.829-1.511,1.009c-0.725,0.268-1.539,0.245-2.382,0.204c-1.276-0.068-2.735-0.197-3.882-0.882  c-2.084-1.25-2.719-4.005-2.884-6.093c-0.253-3.216,0.204-6.516,1.326-9.544c0.204-0.548,0.462-1.183,0.834-1.728  c0.927-1.355,2.624-2.121,4.252-1.981c0.081,0.007,0.154,0.052,0.197,0.12c0.043,0.069,0.051,0.154,0.022,0.23  c-0.174,0.452-0.322,0.922-0.43,1.412c-0.405,1.842-0.355,3.91,0.147,6.144c0.216,0.969,0.625,2.265,1.568,3.126  c0.052,0.048,0.073,0.121,0.054,0.19c-0.02,0.068-0.076,0.119-0.146,0.132c-0.183,0.033-0.365,0.075-0.54,0.143  c-1.385,0.536-2.439,1.888-2.619,3.362c-0.033,0.265,0.156,0.508,0.422,0.541c0.019,0.002,0.04,0.004,0.059,0.004  c0.242,0,0.45-0.18,0.481-0.426c0.14-1.13,0.947-2.165,2.008-2.575c0.739-0.289,1.565-0.301,2.43-0.285  c0.354,0.005,0.71,0.015,1.066,0.029c0.123,0.005,0.239,0.06,0.321,0.152c0.082,0.092,0.122,0.214,0.112,0.337  C20.511,67.477,20.489,68.7,20.481,69.903z M21.232,62.608c-0.12,0.407-0.213,0.816-0.293,1.225  c-0.05,0.256-0.231,0.468-0.476,0.557c-0.028,0.01-0.058,0.021-0.089,0.03c-0.867,0.278-1.774,0.206-2.413-0.193  c-1.004-0.618-1.404-1.962-1.617-2.919c-0.471-2.096-0.521-4.021-0.147-5.724c0.438-1.975,1.459-3.649,2.875-4.715  c0.213-0.161,0.258-0.464,0.097-0.679c-0.163-0.215-0.467-0.258-0.68-0.096c-0.862,0.648-1.573,1.505-2.137,2.489  c-0.062,0.109-0.193,0.156-0.311,0.114c-1.313-0.471-4.199,0.256-5.632,2.35c-0.092,0.134-0.162,0.275-0.236,0.415  c-0.012,0.022-0.035,0.037-0.061,0.036c-0.025,0-0.049-0.015-0.06-0.037c-0.638-1.257-0.525-2.879,0.399-3.957  c0.637-0.74,2.336-1.963,3.686-2.187c0.049-0.008,0.099,0.008,0.133,0.044c0.035,0.036,0.049,0.086,0.039,0.135  c-0.061,0.292-0.129,0.583-0.156,0.885c-0.024,0.266,0.175,0.501,0.44,0.525c0.014,0.001,0.028,0.002,0.043,0.002  c0.249,0,0.462-0.191,0.483-0.444c0.214-2.449,1.333-4.707,2.71-7.144c0.031-0.055,0.094-0.085,0.156-0.074  c0.063,0.01,0.112,0.059,0.123,0.121c0.184,1.013,0.686,1.925,1.965,2.174c0.057,0.011,0.103,0.055,0.117,0.111  c0.014,0.057-0.006,0.117-0.051,0.153c-0.677,0.547-1.39,1.22-2.14,2.067c-0.178,0.2-0.161,0.507,0.04,0.684  c0.092,0.083,0.208,0.123,0.322,0.123c0.133,0,0.268-0.056,0.362-0.163c1.589-1.792,4.067-3.93,6.47-3.823  c0.256-0.006,0.495-0.197,0.507-0.464c0.01-0.268-0.197-0.494-0.464-0.504c-1.559-0.1-3.264,1.008-4.654,0.918  c-1.242-0.079-1.642-0.78-1.599-2.932c0.005-0.251,0.076-0.493,0.205-0.709c1.663-2.768,3.387-5.178,5.825-6.827  c0.22-0.149,0.279-0.451,0.13-0.673c-0.152-0.225-0.455-0.282-0.675-0.13c-3.121,2.111-5.096,5.288-7.173,8.919  c-0.034,0.06-0.067,0.119-0.099,0.178c-0.017,0.032-0.051,0.051-0.087,0.05c-0.036-0.001-0.069-0.021-0.085-0.054  c-0.366-0.732-0.777-1.684-0.779-2.332c-0.005-0.951,0.514-1.865,1.092-2.796c1.601-2.57,3.337-5.086,5.158-7.479  c0.715-0.939,1.433-1.829,2.342-2.411c0.665-0.424,1.636-0.728,2.539-0.507c0.028,0.007,0.052,0.026,0.064,0.052  c0.013,0.026,0.013,0.056,0.001,0.082c-0.178,0.393-0.309,0.794-0.397,1.148c-0.237,0.971-0.455,1.925-0.509,2.921  c-0.12,2.089,0.307,3.832,1.305,5.325c-0.541,1.282-0.861,2.636-1.099,3.925c-0.05,0.264,0.123,0.516,0.388,0.566  c0.028,0.005,0.059,0.008,0.088,0.008c0.23,0,0.433-0.163,0.476-0.397c0.246-1.326,0.554-2.728,1.132-3.998  c0.377-0.827,0.869-1.596,1.459-2.288c0.173-0.204,0.149-0.51-0.054-0.684c-0.206-0.173-0.509-0.149-0.684,0.054  c-0.46,0.539-0.843,1.135-1.187,1.752c-0.66-1.204-0.95-2.552-0.857-4.21c0.052-0.913,0.26-1.82,0.485-2.744  c0.118-0.482,0.256-1.028,0.549-1.423c0.433-0.583,1.253-0.93,2.506-1.06c0.669-0.068,1.675-0.005,2.291,0.041  c0.311,0.023,0.603,0.152,0.831,0.365c0.584,0.547,1.383,0.758,2.211,0.929c0.746,0.155,1.655,0.343,2.572,0.343  c0.099,0,0.199-0.002,0.298-0.007c1.151-0.053,2.162-0.452,2.847-1.124c0.192-0.187,0.194-0.494,0.007-0.686  c-0.185-0.191-0.495-0.194-0.684-0.006c-0.516,0.503-1.3,0.804-2.214,0.847c-0.838,0.031-1.646-0.114-2.629-0.317  c-0.786-0.163-1.528-0.353-1.916-0.873c-0.379-0.513-0.355-1.275-0.294-2.078c0.021-0.268-0.178-0.501-0.445-0.521  c-0.315-0.038-0.502,0.18-0.521,0.445c-0.035,0.45-0.063,1.035,0.043,1.615c0.006,0.03-0.004,0.061-0.025,0.083  c-0.021,0.022-0.051,0.034-0.081,0.03c-0.794-0.088-1.482-0.147-2.391-0.052c-0.471,0.049-0.879,0.138-1.257,0.246  c-0.025,0.007-0.052,0.004-0.075-0.009c-1.02-0.581-1.693-1.808-1.636-3.053c0.057-1.252,0.793-2.484,1.923-3.217  c0.483-0.311,1.03-0.541,1.599-0.768c0.982-0.394,2.238-0.865,3.467-1.304c0.061-0.022,0.13,0.003,0.163,0.058  c0.034,0.056,0.024,0.128-0.025,0.172c-0.551,0.505-1.108,1.004-1.631,1.527c-0.189,0.189-0.189,0.497,0,0.687  c0.095,0.095,0.22,0.142,0.343,0.142c0.123,0,0.249-0.047,0.343-0.142c1.504-1.504,3.083-2.98,4.694-4.387  c0.412-0.359,0.879-0.765,1.395-1.03c0.682-0.352,1.466-0.485,2.43-0.577c1.616-0.153,3.922-0.209,5.777,0.815  c0.043,0.024,0.074,0.065,0.085,0.112c0.011,0.048,0.002,0.098-0.026,0.139c-0.702,1.016-1.062,2.066-1.134,2.725  c-0.009,0.082-0.061,0.154-0.136,0.19c-0.219,0.103-0.435,0.215-0.65,0.338c-0.127,0.073-0.289,0.034-0.369-0.089  c-1.279-1.968-4.111-2.7-5.134-2.207c-0.244,0.114-0.346,0.403-0.232,0.645c0.114,0.24,0.4,0.348,0.644,0.231  c0.564-0.268,2.909,0.28,3.929,1.871c0.078,0.122,0.049,0.283-0.066,0.369c-0.951,0.713-1.83,1.535-2.585,2.275  c-0.104,0.102-0.268,0.106-0.376,0.01c-0.897-0.794-2.771-1.438-3.204-1.494c-0.078-0.01-0.147-0.053-0.192-0.118  c-0.044-0.065-0.059-0.145-0.04-0.222c0.02-0.082,0.039-0.164,0.057-0.248c0.166-0.793,0.322-1.543,0.834-2  c0.199-0.179,0.216-0.485,0.038-0.684c-0.182-0.203-0.49-0.216-0.687-0.038c-0.746,0.669-0.945,1.613-1.134,2.525  c-0.032,0.154-0.066,0.306-0.103,0.457c-0.042,0.17-0.186,0.294-0.36,0.311c-1.182,0.113-2.438,0.501-3.757,1.166  c-0.694,0.348-1.409,0.768-2.184,1.285c-0.225,0.148-0.284,0.45-0.135,0.673c0.147,0.221,0.45,0.281,0.67,0.135  c0.744-0.494,1.426-0.895,2.084-1.226c1.753-0.883,3.353-1.236,4.786-1.054c1.528,0.198,2.675,0.937,3.235,1.986  c0.014,0.026,0.015,0.057,0.004,0.084c-0.012,0.027-0.035,0.047-0.063,0.055c-0.816,0.226-1.545,0.661-2.19,1.062  c-0.227,0.142-0.298,0.44-0.156,0.668c0.092,0.148,0.251,0.23,0.412,0.23c0.088,0,0.178-0.024,0.256-0.073  c0.675-0.419,1.371-0.853,2.124-1.016c0.26-0.056,0.523-0.079,0.786-0.094c1.172-0.06,2.349,0.077,3.484,0.416  c0.265,0.077,0.528-0.071,0.604-0.327c0.078-0.257-0.069-0.527-0.324-0.604c-1.241-0.368-2.534-0.525-3.815-0.454  c-0.04,0.002-0.078-0.02-0.094-0.057c-0.026-0.059-0.056-0.117-0.087-0.173c-0.059-0.108-0.039-0.241,0.049-0.328  c1.558-1.543,3.726-3.574,5.722-3.863c0.227-0.033,0.457-0.051,0.689-0.069c0.403-0.032,0.819-0.064,1.236-0.172  c0.876-0.226,1.527-0.776,1.745-1.468c0.078-0.256-0.064-0.528-0.32-0.607c-0.258-0.086-0.528,0.063-0.609,0.319  c-0.135,0.437-0.635,0.708-1.059,0.817c-0.336,0.086-0.694,0.115-1.07,0.144c-0.253,0.02-0.504,0.04-0.753,0.077  c-0.086,0.012-0.171,0.035-0.257,0.058c-0.042,0.012-0.087,0-0.117-0.031c-0.031-0.031-0.042-0.076-0.03-0.118  c0.526-1.82,2.07-3.521,3.71-3.965c0.798-0.214,1.629-0.239,2.342-0.229c2.179,0.021,3.803,0.831,4.53,1.519  c0.199,0.185,0.504,0.176,0.687-0.02c0.185-0.194,0.175-0.502-0.019-0.686c-0.51-0.481-1.351-0.962-2.411-1.308  c-0.049-0.016-0.089-0.054-0.108-0.103c-0.019-0.049-0.015-0.103,0.011-0.149c0.448-0.788,1.424-1.222,2.031-1.412  c1.128-0.354,2.445-0.413,3.465-0.221c0.05,0.009,0.088,0.048,0.097,0.098c0.009,0.05-0.014,0.1-0.058,0.126  c-0.268,0.159-0.531,0.343-0.781,0.566c-0.668,0.599-1.182,1.317-1.639,2.003c-0.149,0.223-0.09,0.523,0.133,0.673  c0.083,0.054,0.178,0.082,0.27,0.082c0.156,0,0.31-0.076,0.403-0.217c0.424-0.633,0.895-1.292,1.482-1.819  c0.424-0.379,1.101-0.853,1.923-0.959c0.062-0.008,0.127-0.011,0.193-0.01c0.27,0.001,0.532,0.069,0.768,0.201  c0.649,0.361,1.286,0.776,1.87,1.184c0.091,0.063,0.138,0.174,0.12,0.283s-0.097,0.199-0.204,0.23  c-1.896,0.555-3.709,1.389-5.222,2.507c-0.566,0.418-1.104,0.873-1.639,1.327c-0.13,0.111-0.259,0.219-0.387,0.326  c-0.258,0.214-0.594,0.313-0.926,0.271c-0.096-0.012-0.193-0.022-0.29-0.028c-0.417-0.026-0.834-0.023-1.241-0.013  c-0.452,0.005-0.902,0.014-1.355-0.027c-0.632-0.058-1.494-0.252-2.02-0.85c-0.18-0.203-0.485-0.223-0.684-0.043  c-0.201,0.176-0.22,0.483-0.045,0.684c0.585,0.662,1.504,1.069,2.66,1.175c0.485,0.046,0.966,0.037,1.459,0.031  c0.176-0.004,0.352-0.003,0.528,0c0.047,0.001,0.088,0.032,0.1,0.078c0.013,0.045-0.006,0.093-0.046,0.119  c-0.575,0.364-1.06,0.609-1.731,0.953c-1.115,0.572-2.262,1.163-3.257,2.046c-0.165,0.146-0.38,0.224-0.6,0.217  c-1.073-0.033-2.135-0.346-2.819-1.075c-0.182-0.195-0.493-0.208-0.684-0.023c-0.197,0.184-0.206,0.49-0.021,0.686  c0.664,0.709,1.591,1.122,2.578,1.303c0.086,0.016,0.158,0.077,0.187,0.16c0.029,0.083,0.012,0.176-0.046,0.242  c-0.196,0.226-0.398,0.453-0.591,0.637c-0.829,0.79-1.935,1.302-3.107,1.844c-0.13,0.06-0.256,0.128-0.386,0.188  c-0.935,0.057-2.09-0.208-2.594-0.799c-0.171-0.206-0.476-0.229-0.684-0.056c-0.204,0.173-0.227,0.48-0.054,0.683  c0.194,0.229,0.938,0.673,1.517,0.823c0.049,0.013,0.086,0.053,0.095,0.102c0.009,0.05-0.012,0.1-0.054,0.129  c-0.229,0.159-0.486,0.329-0.902,0.62c-0.956,0.661-1.821,1.437-2.601,2.297c-2.103,0.9-4.535,0.91-6.736,0.87  c-1.911-0.03-3.597-0.129-4.881-1.037c-0.22-0.156-0.521-0.104-0.675,0.115s-0.104,0.521,0.116,0.676  c0.932,0.662,2.019,0.943,3.096,1.075c0.057,0.007,0.102,0.051,0.109,0.108c0.008,0.057-0.023,0.111-0.076,0.133  c-0.868,0.361-1.695,0.813-2.421,1.405c-0.208,0.169-0.239,0.475-0.071,0.682c0.171,0.208,0.474,0.237,0.682,0.069  c1.992-1.623,4.694-2.372,7.233-2.005c0.396,0.058,0.841,0.149,1.141,0.399c0.125,0.103,0.213,0.233,0.279,0.375  c0.035,0.076,0.031,0.164-0.012,0.237c-0.007,0.012-0.014,0.023-0.021,0.035c-0.327,0.573-0.649,1.149-1.056,1.67  c-0.424,0.545-0.947,1.036-1.504,1.556L37.3,35.787c-0.141,0.135-0.312,0.228-0.501,0.276c-1.121,0.28-2.359,0.028-3.265-0.7  c-0.208-0.163-0.512-0.133-0.682,0.076c-0.168,0.208-0.133,0.514,0.076,0.682c0.719,0.576,1.634,0.949,2.659,1.013  c0.068,0.004,0.127,0.047,0.152,0.111c0.025,0.063,0.011,0.135-0.036,0.185c-0.87,0.921-1.71,1.869-2.482,2.865  c-0.89,1.148-1.7,2.346-2.473,3.565c0.036-0.893,0.04-1.777,0.029-2.615c-0.005-0.265-0.22-0.478-0.486-0.478  c-0.002,0-0.005,0-0.007,0c-0.268,0.005-0.481,0.225-0.478,0.493c0.02,1.446,0.019,3.015-0.221,4.532  c-0.819,1.403-1.6,2.822-2.343,4.25c-0.175,0.337-0.464,0.601-0.815,0.746c-0.361,0.148-0.724,0.24-1.062,0.246  c-0.542-0.017-1.014-0.21-1.293-0.532c-0.274-0.316-0.374-0.905-0.382-1.404c-0.005-0.311,0.079-0.614,0.244-0.878  c0.163-0.261,0.21-0.519-0.127-0.706c-0.68-0.386-1.223,0.841-1.684,1.58c-1.033,1.657-1.941,3.959-2.245,6.265  c-0.036,0.266,0.152,0.509,0.417,0.545c0.021,0.002,0.043,0.005,0.064,0.005c0.239,0,0.448-0.178,0.481-0.422  c0.161-1.22,0.494-2.419,0.955-3.565c0.021-0.053,0.064-0.096,0.117-0.117c0.053-0.021,0.113-0.02,0.166,0.003  c0.812,0.366,1.507,0.989,1.917,1.777c0.215,0.413,0.345,0.864,0.398,1.326c0.047,0.409-0.026,0.817-0.21,1.185l-1.12,2.233  C22.385,59.679,21.684,61.075,21.232,62.608z M41.358,86.558c-0.632,0.971-0.935,2.261-0.257,3.315  c0.04,0.063,0.091,0.12,0.145,0.176c0.032,0.033,0.039,0.082,0.018,0.122c-0.021,0.04-0.066,0.062-0.111,0.054  c-0.176-0.031-0.285-0.052-0.291-0.053c-0.069-0.014-0.14-0.021-0.211-0.021c-0.05,0-0.102,0.004-0.152,0.011  c-0.05,0.008-4.966,0.695-7.157,0.451c-1.877-0.206-3.343-0.796-4.608-1.668c-0.044-0.03-0.058-0.088-0.033-0.135  c0.024-0.047,0.08-0.068,0.13-0.05c0.336,0.127,0.679,0.251,1.03,0.374c0.054,0.019,0.107,0.028,0.161,0.028  c0.201,0,0.388-0.125,0.457-0.324c0.09-0.253-0.043-0.529-0.296-0.618c-1.647-0.579-3.123-1.18-4.321-2.023  c-0.862-1.067-1.7-2.273-2.606-3.61c-0.05-0.15-0.121-0.319-0.163-0.457c-0.114-0.369-0.177-0.754-0.264-1.132l0.061-8.823  c0.001-0.079,0.052-0.149,0.127-0.174c0.075-0.025,0.158,0,0.205,0.063c0.359,0.472,0.86,1.044,1.284,1.299  c0.133,0.08,0.209,0.23,0.193,0.384c-0.004,0.037-0.006,0.074-0.006,0.111c0.002,1.498,0.35,2.851,1.004,3.914  c0.786,1.278,2.053,2.148,3.391,2.329c0.185,0.025,0.367,0.037,0.549,0.037c0.417,0,0.821-0.071,1.209-0.188  c0.057-0.017,0.119-0.002,0.161,0.04c0.043,0.042,0.059,0.103,0.042,0.16c-0.045,0.158-0.083,0.319-0.1,0.488  c-0.015,0.141-0.009,0.277-0.004,0.414c0.002,0.046-0.016,0.09-0.048,0.122c-1.339,1.321-3.2,1.826-3.673,1.722  c-0.258-0.055-0.519,0.112-0.573,0.374c-0.057,0.263,0.111,0.52,0.374,0.576c1.152,0.237,3.018-0.736,3.943-1.471  c0.04-0.032,0.094-0.043,0.143-0.03c0.05,0.013,0.09,0.049,0.109,0.097c0.385,0.97,1.123,1.786,1.952,2.352  c0.041,0.028,0.067,0.074,0.07,0.124c0.003,0.05-0.017,0.099-0.055,0.132c-0.252,0.222-0.528,0.45-0.657,0.527  c-0.618,0.375-1.333,0.764-1.98,0.622c-0.258-0.054-0.519,0.112-0.573,0.374c-0.057,0.263,0.111,0.52,0.374,0.575  c0.161,0.033,0.32,0.05,0.478,0.05c0.772,0,1.511-0.373,2.202-0.79c0.286-0.172,0.845-0.659,1.16-0.97  c0.046-0.046,0.115-0.06,0.176-0.035c1.455,0.594,3.046,0.75,4.478,0.865l2.465,0.201c0.02,0.002,0.038,0.014,0.047,0.031  C41.37,86.52,41.369,86.541,41.358,86.558z M38.93,85.303c-1.544-0.125-3.294-0.266-4.732-1.012c-1.21-0.63-2.439-2.009-2.281-3.551  c0.063-0.621,0.345-1.194,0.729-1.764c0,0,1.471-1.92,2.009-2.228c0.538-0.308,1.554-0.32,1.554-0.32  c1.021-0.06,2.056-0.088,3.079-0.059c0.853,0.015,1.757,0.062,2.593,0.295c1.774,0.495,3.157,1.755,4.618,3.089  c0.758,0.692,1.542,1.407,2.39,2.011c0.216,0.154,0.521,0.103,0.677-0.114c0.154-0.219,0.104-0.521-0.114-0.677  c-0.8-0.57-1.563-1.265-2.3-1.936c-0.618-0.563-1.246-1.129-1.912-1.642c-0.38-0.293-0.684-0.661-0.903-1.088  c-1.367-2.674-2.026-5.593-1.925-8.371c0.003-0.015,0.018-0.024,0.02-0.04c0.026-0.286,0.04-0.578,0.035-0.869  c0.053-0.538,0.128-1.071,0.242-1.592c0.118-0.549,0.305-1.254,0.689-1.831c0.187-0.278,0.422-0.535,0.67-0.806  c0.16-0.174,0.316-0.358,0.468-0.545c0.329,0.428,0.779,0.678,1.214,0.865c0.765,0.326,1.596,0.4,2.333,0.465l5.741,0.516  c0.014,0.001,0.028,0.002,0.043,0.002c0.249,0,0.459-0.191,0.483-0.442c0.024-0.268-0.173-0.503-0.44-0.527l-5.741-0.516  c-0.696-0.062-1.414-0.127-2.037-0.391c-0.635-0.272-0.892-0.509-1.009-0.913c0.007-0.017,0.02-0.029,0.027-0.046  c0.159-0.41,0.216-0.825,0.268-1.227l0.031-0.212c0.317-2.178,1.381-4.334,2.993-6.071c0.298-0.321,0.628-0.618,0.963-0.912  c0.004-0.002,0.008,0.002,0.012,0c0.486-0.188,0.737-0.203,1.113-0.078c0.488,0.165,0.938,0.442,1.411,0.734l1.954,1.208  c0.081,0.05,0.168,0.073,0.256,0.073c0.161,0,0.32-0.082,0.412-0.231c0.142-0.227,0.071-0.526-0.156-0.667l-1.954-1.209  c-0.502-0.309-1.021-0.629-1.615-0.829c-0.019-0.006-0.033-0.023-0.036-0.043c-0.003-0.02,0.006-0.04,0.023-0.051  c1.028-0.694,2.159-1.286,3.383-1.732c0.81-0.294,1.468-0.462,2.077-0.528c1.551-0.172,3.209,0.315,4.422,1.306  c0.213,0.169,0.514,0.141,0.684-0.069c0.168-0.207,0.137-0.513-0.069-0.682c-1.026-0.836-2.285-1.351-3.582-1.504  c-0.049-0.006-0.09-0.039-0.105-0.086c-0.015-0.047-0.002-0.098,0.033-0.132c0.542-0.51,1.105-1.154,1.698-1.954  c0.003-0.004,0.006-0.008,0.009-0.012c0.02-0.03,0.053-0.051,0.089-0.055c0.037-0.005,0.073,0.007,0.101,0.031  c0.721,0.648,1.732,0.925,2.676,1.108c0.048,0.009,0.098,0.017,0.145,0.026c0.03,0.006,0.045,0.026,0.077,0.029  c0.07-0.006,0.141,0.015,0.211,0.023c0.09,0.017,0.181,0.032,0.271,0.048c0.409,0.14,0.795,0.477,1.033,0.927  c0.355,0.67,0.403,1.479,0.403,2.182c0.002,1.317-0.163,2.63-0.49,3.905c-0.033,0.128-0.075,0.263-0.13,0.381  c-0.08,0.173-0.259,0.278-0.449,0.262c-0.524-0.044-1.065-0.017-1.6,0.032c-1.861,0.172-3.73,0.498-5.549,0.971  c-0.261,0.066-0.417,0.332-0.348,0.591c0.069,0.258,0.336,0.416,0.59,0.347c1.771-0.458,3.586-0.776,5.397-0.943  c1.037-0.099,2.112-0.109,2.849,0.448c0.367,0.275,0.673,0.709,0.933,1.329c0.682,1.608,0.625,3.824-0.796,4.948  c-0.374,0.296-0.836,0.509-1.274,0.702c-1.091,0.479-2.221,0.888-3.361,1.256c-0.081,0.026-0.17,0.013-0.24-0.036  c-0.069-0.049-0.112-0.128-0.115-0.213c-0.012-0.396-0.038-0.79-0.065-1.184l-0.223-3.243c-0.019-0.265-0.187-0.47-0.516-0.451  c-0.268,0.019-0.469,0.25-0.45,0.517l0.223,3.267c0.064,0.924,0.13,1.879-0.014,2.777c-0.154,0.959-0.552,1.767-1.12,2.275  c-1.021,0.913-2.551,0.97-4.185,0.944c-0.481-0.006-0.869-0.026-1.146-0.207c-0.225-0.143-0.523-0.083-0.673,0.141  c-0.144,0.225-0.083,0.526,0.142,0.671c0.535,0.349,1.187,0.359,1.663,0.366c0.156,0.001,0.313,0.004,0.469,0.004  c0.761,0,1.522-0.039,2.238-0.189c0.099-0.021,0.197,0.033,0.235,0.126c1.004,2.522,1.299,5.168,0.786,7.513  c-0.609,2.78-2.345,5.152-4.644,6.343c-0.239,0.123-0.332,0.417-0.208,0.654c0.088,0.167,0.256,0.263,0.431,0.263  c0.076,0,0.152-0.018,0.223-0.055c0.847-0.439,1.59-1.059,2.271-1.756c0.087-0.089,0.202-0.143,0.325-0.154  c1.295-0.112,2.554-0.395,3.794-0.831c0.063-0.022,0.133-0.004,0.177,0.046c0.044,0.05,0.054,0.122,0.024,0.182  c-0.628,1.26-1.497,2.621-2.442,3.356c-1.307,1.018-2.922,1.42-4.305,1.07c-0.497-0.124-0.971-0.341-1.473-0.571  c-0.211-0.096-0.422-0.192-0.632-0.281c-1.864-0.79-3.924-1.101-5.932-0.885c-1.603,0.167-3.501-2.268-4.012-3.938  c-0.078-0.256-0.348-0.398-0.606-0.322c-0.256,0.079-0.4,0.351-0.322,0.606c0.455,1.486,1.409,2.801,2.648,3.737  c0.02,0.015,0.027,0.041,0.019,0.064c-0.008,0.023-0.03,0.039-0.055,0.038c-0.35-0.006-0.703-0.02-1.049-0.047L38.93,85.303z   M51.74,89.734c-1.127,0.42-2.311,0.791-3.311,0.934c-0.969,0.14-2.133,0.125-3.256,0.051c-0.668-0.084-1.352-0.226-2.006-0.486  c-0.616-0.244-1.025-0.533-1.25-0.883c-0.504-0.789-0.116-1.893,0.459-2.587c0.122-0.148,0.305-0.232,0.496-0.227  c0.045,0.001,0.091,0.001,0.137-0.001c0.405-0.017,0.81-0.071,1.213-0.124c0.218-0.03,0.433-0.059,0.649-0.082  c1.857-0.194,3.739,0.088,5.454,0.813c0.204,0.086,0.405,0.179,0.606,0.27c0.521,0.238,1.059,0.483,1.641,0.629  c0.072,0.018,0.146,0.026,0.22,0.033c0.06,0.005,0.112,0.039,0.142,0.091s0.032,0.115,0.006,0.169  C52.685,88.862,52.27,89.347,51.74,89.734z M76.551,77.295c-0.026,0.248-0.143,0.477-0.328,0.643  c-1.711,1.534-3.115,2.69-5.365,4.217c-3.614,2.45-6.231,3.918-8.237,4.622c-2.314,0.813-6.328,1.05-6.368,1.053  c-0.154,0.008-0.303,0.05-0.438,0.12c-0.018,0.009-0.767,0.389-1.826,0.861c-0.041,0.018-0.09,0.009-0.122-0.023  s-0.04-0.081-0.021-0.122c0.05-0.107,0.096-0.215,0.136-0.325c0.036-0.099,0.126-0.168,0.231-0.175  c1.211-0.084,2.442-0.547,3.496-1.37c1.445-1.126,2.995-3.865,3.242-4.859c0.025-0.101,0.094-0.185,0.187-0.23  c0.701-0.337,1.399-0.715,2.094-1.164c0.95-0.614,2.034-1.516,2.912-2.656c0.103-0.134,0.251-0.228,0.417-0.263  c0.658-0.141,0.941-0.275,1.785-0.153c0.774,0.11,1.435,0.497,1.767,1.037c0.09,0.148,0.249,0.231,0.412,0.231  c0.088,0,0.175-0.024,0.253-0.072c0.23-0.141,0.301-0.439,0.159-0.668c-0.481-0.781-1.397-1.338-2.453-1.49  c-0.448-0.062-0.829-0.051-1.197-0.003c-0.059,0.008-0.118-0.018-0.152-0.066c-0.035-0.049-0.04-0.112-0.014-0.166  c0.148-0.3,0.289-0.605,0.38-0.94c0.06-0.221,0.099-0.452,0.134-0.683c0.075,0.011,0.153,0.039,0.221,0.04c0.031,0,0.059,0,0.09,0  c2.266,0,4.623-0.833,7.326-2.531c0.106-0.067,0.24-0.071,0.35-0.011c0.453,0.247,0.844,0.68,0.98,2.033  C76.722,75.382,76.616,76.669,76.551,77.295z M88.792,64.878c-0.114,0.262-0.244,0.53-0.426,0.716  c-0.251,0.251-0.637,0.366-0.976,0.296c-0.346-0.069-0.651-0.326-0.784-0.651c-0.097-0.246-0.116-0.552-0.133-0.845l-0.083-1.57  c-0.014-0.269-0.27-0.475-0.512-0.458c-0.268,0.014-0.474,0.243-0.459,0.51l0.088,1.571c0.017,0.337,0.04,0.758,0.199,1.153  c0.233,0.58,0.737,1.061,1.43,1.22c0.03,0.007,0.052,0.031,0.057,0.061c0.005,0.03-0.008,0.06-0.034,0.076  c-0.057,0.036-0.111,0.069-0.157,0.095c-0.178,0.101-0.324,0.25-0.424,0.429c-0.012,0.025-1.343,2.448-3.218,4.418  c-1.141,1.202-2.515,2.24-3.725,3.156c-0.758,0.574-1.435,1.088-1.928,1.541c-0.027,0.024-0.065,0.03-0.098,0.014  c-0.033-0.016-0.052-0.05-0.049-0.086c0.07-0.813,0.089-1.629,0.007-2.439c-0.133-1.314-0.517-2.014-0.993-2.441  c-0.053-0.047-0.082-0.116-0.079-0.187c0.003-0.071,0.037-0.137,0.094-0.18c0.422-0.317,0.82-0.674,1.112-1.145  c0.227-0.361,0.372-0.741,0.521-1.164c0.232-0.651,0.452-1.345,0.65-2.057c0.027-0.095,0.104-0.168,0.201-0.188  c1.533-0.325,3.049-1.331,3.947-2.681c0.817-1.224,1.402-2.577,1.76-3.989c0.026-0.103,0.118-0.177,0.225-0.178  c0.596-0.01,1.469-0.559,1.952-0.965c0.065-0.055,0.161-0.052,0.222,0.007c0.118,0.113,0.235,0.239,0.354,0.383  c0.803,0.96,1.667,2.092,1.748,3.369C89.321,63.313,89.164,64.015,88.792,64.878z M93.422,57.301  c-0.917,2.759-3.14,4.702-3.164,4.721c-0.022,0.019-0.051,0.025-0.079,0.016c-0.027-0.009-0.047-0.031-0.053-0.059  c-0.265-1.227-1.02-2.314-1.848-3.303c-0.139-0.167-0.286-0.324-0.441-0.472c-0.06-0.057-0.069-0.151-0.018-0.221  c0.486-0.685,0.845-1.499,1.149-2.568c0.026-0.093,0.095-0.169,0.186-0.204c2.27-0.883,4.223-3.076,5.434-5.217  c0.021-0.037,0.065-0.055,0.106-0.041c0.041,0.013,0.067,0.053,0.062,0.096C94.468,52.532,93.987,55.605,93.422,57.301z   M94.874,46.663c-0.341,2.138-2.578,5.804-5.376,7.305c-0.044,0.023-0.097,0.02-0.137-0.01c-0.04-0.029-0.06-0.079-0.051-0.128  c0.508-2.693,0.418-5.352-0.333-7.75c-0.337-1.078-0.837-2.077-1.423-3.01c-0.143-0.227-0.223-0.484-0.237-0.751  c-0.083-1.583,0.176-3.943,0.844-4.546c0.346-0.311,0.895-0.377,1.39-0.4c0.924-0.043,1.84,0.019,2.738,0.188  c0.279,0.041,0.519-0.127,0.566-0.387c0.05-0.264-0.123-0.517-0.386-0.567c-0.521-0.098-1.05-0.153-1.581-0.182  c-0.058-0.003-0.112-0.029-0.15-0.073c-0.038-0.043-0.057-0.1-0.053-0.158c0.048-0.657,0.042-1.578-0.024-2.563  c-0.004-0.066,0.025-0.13,0.079-0.169c0.054-0.039,0.124-0.048,0.186-0.024c1.784,0.705,2.767,2.763,3.125,3.696  c0.185,0.483,0.403,1.121,0.426,1.767c0.043,1.036-0.41,2.157-1.276,3.154c-0.808,0.931-1.859,1.657-2.875,2.359  c-0.22,0.153-0.277,0.455-0.126,0.675c0.095,0.136,0.246,0.21,0.4,0.21c0.095,0,0.192-0.028,0.275-0.086  c1.068-0.737,2.169-1.498,3.06-2.521c0.028-0.033,0.072-0.05,0.115-0.045c0.043,0.005,0.082,0.031,0.102,0.069  c0.188,0.348,0.334,0.715,0.458,1.091c0.112,0.541,0.242,1.214,0.333,1.795C94.952,45.955,94.93,46.31,94.874,46.663z"></path></svg>