<svg xmlns="http://www.w3.org/2000/svg" viewBox="0 0 512 512" x="0px" y="0px"><title>skill dark shadow</title><path d="M406.64,469.38c-5.77-69.24-69.87-104.55-69.87-104.55-17-10-29.52-27.16-37-39.81a59.81,59.81,0,0,1-8.29-30.51V275.33c30.89-12.91,31.72-48,31.72-48,29.52-9.67,31.6-35.46,29.82-51.25a11.84,11.84,0,0,0-15.72-9.83,86.15,86.15,0,0,0-8.81,3.68C344.32,58.94,256,60.45,256,60.45S167.68,58.94,183.54,170a86.15,86.15,0,0,0-8.81-3.68A11.84,11.84,0,0,0,159,176.12c-1.78,15.79.3,41.58,29.82,51.25,0,0,.83,35.05,31.72,48v19.18A59.81,59.81,0,0,1,212.26,325c-7.51,12.65-20,29.77-37,39.81,0,0-64.1,35.31-69.87,104.55A12.53,12.53,0,0,0,117.81,483H394.19A12.53,12.53,0,0,0,406.64,469.38ZM242.51,200.73c-6,3.42-16.59,7.1-27.39-.38-9-6.2-8.69-16-7.46-22a3.85,3.85,0,0,1,5.83-2.48l29.14,18.28A3.85,3.85,0,0,1,242.51,200.73Zm27,0a3.85,3.85,0,0,1-.12-6.6l29.14-18.28a3.85,3.85,0,0,1,5.83,2.48c1.23,6,1.5,15.82-7.46,22C286.08,207.83,275.5,204.15,269.49,200.73Z"></path><path d="M192.41,31.76c-21.08,7-36.53,28.77-47.23,47.38a173.69,173.69,0,0,0-15.47,137.31A180.07,180.07,0,0,0,144,250.17c6.78,12.4,12,23.51,11.51,38-.39,11.35,17.16,11.34,17.54,0a74.34,74.34,0,0,0-7.71-35.41c-5.16-10.67-11.45-20.54-15.6-31.71a161.54,161.54,0,0,1-9.69-68.63,153.23,153.23,0,0,1,19-62.48,175.88,175.88,0,0,1,17.76-26.09c7-8.56,14.76-16,20.58-25.52C199.38,35.1,196.1,30.53,192.41,31.76Z"></path><path d="M162.38,317.19a11.25,11.25,0,0,0-3.51-3.56,9,9,0,0,0-8.57-.27,7.21,7.21,0,0,0-1.07.55,18.69,18.69,0,0,0-1.87,1.45,6.7,6.7,0,0,0-1.92,3,12.09,12.09,0,0,0-.5,1.22,9.82,9.82,0,0,0-.17,3.74,6.89,6.89,0,0,0,1.1,3.45l1.44,1.88a11.78,11.78,0,0,0,2,1.56,13,13,0,0,0,2.34,1,9.55,9.55,0,0,0,3.8.17,5.28,5.28,0,0,0,2.44-.67,9.41,9.41,0,0,0,3-1.95,9.83,9.83,0,0,0,2.79-6.67,13.77,13.77,0,0,0-.31-2.55A13.21,13.21,0,0,0,162.38,317.19Z"></path><path d="M128.36,342.18c-5.56.8-8.87,5.21-13,8.62A134.76,134.76,0,0,1,101.1,361c-10.39,6.44-21.41,12.82-29.92,21.77-21.55,22.65-21.82,58.09-23.3,87.54-.21,4.05,2.43,9.15,6.69,10.17a13.64,13.64,0,0,0,5.32.36c4.26-.57,7.77-5,8-9.21,1.38-26.62.51-61,22.55-79.78,8.8-7.5,19-13.15,27.91-20.49,7.16-5.88,18.88-16.88,14.19-27.16A3.86,3.86,0,0,0,128.36,342.18Z"></path><path d="M89.8,325.06c7.64-8.24,14.72-17.25,18.48-28,4.23-12.07,2.92-25.05.71-37.38-8.93-49.66-18.28-99.92-3.93-149.64a166.33,166.33,0,0,1,16.3-38A139.59,139.59,0,0,1,131.9,56c4-5.07,8.69-9.69,12-15.26,2.91-4.91-1.89-10.74-7.21-9.42-11.21,2.8-19.14,13.1-25.55,22.1C104,63.45,98.43,74.62,93.74,86,84,109.51,79.57,134.85,78.81,160.23c-.78,26.32,2.37,52.66,7,78.53,2.24,12.52,6,25.21,6.46,38,.46,13.35-5.36,23.48-14,33.13-18.42,20.48-42.18,37.73-48.11,66.36-2.46,11.83,15.6,16.88,18.07,5C53.21,357,74,342.16,89.8,325.06Z"></path><path d="M47.94,264.24c9.73-16.18,10-37.8,9-56.09-1.12-20.83-3.73-41.52-4.06-62.4C52.6,126.13,54,106.51,59.52,87.6A130.35,130.35,0,0,1,70.16,61.85c4.22-7.78,11-15.17,13.62-23.61,1.51-4.83-3.68-10.87-8.77-8.81C58.74,36,49.36,58,43.7,73.47c-7,19.13-9.8,39.69-10.39,60-.63,21.68,1.44,43.26,3.1,64.85a212.21,212.21,0,0,1,.7,29.51c-.64,10.32-3.66,19.2-7,28.85C26.33,267.41,42.35,273.53,47.94,264.24Z"></path><path d="M319.59,31.76c21.08,7,36.53,28.77,47.23,47.38a173.69,173.69,0,0,1,15.47,137.31A180.07,180.07,0,0,1,368,250.17c-6.78,12.4-12,23.51-11.51,38,.39,11.35-17.16,11.34-17.54,0a74.34,74.34,0,0,1,7.71-35.41c5.16-10.67,11.45-20.54,15.6-31.71a161.54,161.54,0,0,0,9.69-68.63,153.23,153.23,0,0,0-19-62.48,175.88,175.88,0,0,0-17.76-26.09c-7-8.56-14.76-16-20.58-25.52C312.62,35.1,315.9,30.53,319.59,31.76Z"></path><path d="M349.62,317.19a11.25,11.25,0,0,1,3.51-3.56,9,9,0,0,1,8.57-.27,7.21,7.21,0,0,1,1.07.55,18.69,18.69,0,0,1,1.87,1.45,6.7,6.7,0,0,1,1.92,3,12.09,12.09,0,0,1,.5,1.22,9.82,9.82,0,0,1,.17,3.74,6.89,6.89,0,0,1-1.1,3.45l-1.44,1.88a11.78,11.78,0,0,1-2,1.56,13,13,0,0,1-2.34,1,9.55,9.55,0,0,1-3.8.17,5.28,5.28,0,0,1-2.44-.67,9.41,9.41,0,0,1-3-1.95,9.83,9.83,0,0,1-2.79-6.67,13.77,13.77,0,0,1,.31-2.55A13.21,13.21,0,0,1,349.62,317.19Z"></path><path d="M383.64,342.18c5.56.8,8.87,5.21,13,8.62A134.76,134.76,0,0,0,410.9,361c10.39,6.44,21.41,12.82,29.92,21.77,21.55,22.65,21.82,58.09,23.3,87.54.21,4.05-2.43,9.15-6.69,10.17a13.64,13.64,0,0,1-5.32.36c-4.26-.57-7.77-5-8-9.21-1.38-26.62-.51-61-22.55-79.78-8.8-7.5-19-13.15-27.91-20.49-7.16-5.88-18.88-16.88-14.19-27.16A3.86,3.86,0,0,1,383.64,342.18Z"></path><path d="M422.2,325.06c-7.64-8.24-14.72-17.25-18.48-28C399.49,285,400.8,272,403,259.69c8.93-49.66,18.28-99.92,3.93-149.64a166.33,166.33,0,0,0-16.3-38A139.59,139.59,0,0,0,380.1,56c-4-5.07-8.69-9.69-12-15.26C365.2,35.83,370,30,375.32,31.32c11.21,2.8,19.14,13.1,25.55,22.1,7.15,10,12.7,21.2,17.39,32.57,9.72,23.52,14.17,48.86,14.93,74.24.78,26.32-2.37,52.66-7,78.53-2.24,12.52-6,25.21-6.46,38-.46,13.35,5.36,23.48,14,33.13,18.42,20.48,42.18,37.73,48.11,66.36,2.46,11.83-15.6,16.88-18.07,5C458.79,357,438,342.16,422.2,325.06Z"></path><path d="M464.06,264.24c-9.73-16.18-10-37.8-9-56.09,1.12-20.83,3.73-41.52,4.06-62.4.31-19.62-1.12-39.24-6.61-58.15a130.35,130.35,0,0,0-10.64-25.75c-4.22-7.78-11-15.17-13.62-23.61-1.51-4.83,3.68-10.87,8.77-8.81C453.26,36,462.64,58,468.3,73.47c7,19.13,9.8,39.69,10.39,60,.63,21.68-1.44,43.26-3.1,64.85a212.21,212.21,0,0,0-.7,29.51c.64,10.32,3.66,19.2,7,28.85C485.67,267.41,469.65,273.53,464.06,264.24Z"></path></svg>