<?xml version="1.0" encoding="UTF-8"?>
<svg width="1200pt" height="1200pt" version="1.1" viewBox="0 0 1200 1200" xmlns="http://www.w3.org/2000/svg">
 <defs>
  <clipPath id="b">
   <path d="m254 266h599v684h-599z"/>
  </clipPath>
  <clipPath id="a">
   <path d="m137.22 332.82 729.96-195.59 195.59 729.96-729.96 195.59z"/>
  </clipPath>
 </defs>
 <g clip-path="url(#b)">
  <g clip-path="url(#a)">
   <path d="m641.77 347.71-21.754-81.191-211.54 56.684 21.754 81.191-175.79 47.102 11.977 44.691 52.141-13.973 172.5 447.15c5.4805 14.5 21.336 23.023 36.98 18.832l300.93-80.633c14.898-3.9922 25.312-18.758 22.609-34.797l-74.184-473.5 59.59-15.965-11.977-44.691zm-176.63 8.207 122.9-32.93 9.7812 36.5-122.91 32.93zm104.77 468.5c-12.465 4.1367-25.484-2.75-29.426-14.469l-88.543-270.86c-4.1367-12.465 2.75-25.484 14.469-29.426 12.465-4.1367 25.484 2.75 29.426 14.469l88.543 270.86c4.1406 12.465-2.75 25.484-14.469 29.426zm96.805-49.891c3.3945 12.664-3.6953 24.941-16.359 28.332-12.664 3.3945-24.941-3.6953-28.332-16.359l-73.848-275.6c-3.3945-12.664 3.6953-24.941 16.359-28.332 12.664-3.3945 24.941 3.6953 28.332 16.359zm82.133-21.211c2.6484 12.863-5.3867 24.594-18.246 27.242-12.863 2.6484-24.594-5.3867-27.242-18.246l-58.75-278.84c-2.6484-12.863 5.3867-24.594 18.246-27.242 12.863-2.6484 24.594 5.3867 27.242 18.246z"/>
  </g>
 </g>
</svg>
