<svg xmlns:dc="http://purl.org/dc/elements/1.1/" xmlns:cc="http://creativecommons.org/ns#" xmlns:rdf="http://www.w3.org/1999/02/22-rdf-syntax-ns#" xmlns:svg="http://www.w3.org/2000/svg" xmlns="http://www.w3.org/2000/svg" xmlns:sodipodi="http://sodipodi.sourceforge.net/DTD/sodipodi-0.dtd" xmlns:inkscape="http://www.inkscape.org/namespaces/inkscape" version="1.1" x="0px" y="0px" viewBox="0 0 100 100"><g transform="translate(0,-952.36218)"><path style="text-indent:0;text-transform:none;direction:ltr;block-progression:tb;baseline-shift:baseline;color:#000000;enable-background:accumulate;" d="m 17.8125,958.36237 c -0.983168,0.0927 -1.816758,1.01249 -1.8125,2 l 0,83.99983 c 7.8e-5,1.0472 0.952814,1.9999 2,2 l 64,0 c 1.047186,-10e-5 1.999922,-0.9528 2,-2 l 0,-67.99987 c -0.0042,-0.52204 -0.222532,-1.03918 -0.59375,-1.40625 l -16,-15.99996 C 67.039181,958.5849 66.522037,958.36655 66,958.36237 l -21,0 c -1.056623,-0.0149 -2.028477,0.94327 -2.028477,2 0,1.05672 0.971854,2.01493 2.028477,1.99999 l 19,0 0,13.99997 c 1.05e-4,1.04717 0.952831,1.9999 2,2 l 14,0 0,63.99987 -60,0 0,-79.99984 17,0 c 1.056623,0.0149 2.028477,-0.94327 2.028477,-1.99999 0,-1.05673 -0.971854,-2.01494 -2.028477,-2 -6.390177,0 -12.81123,0 -19.1875,0 z M 68,965.17486 l 9.1875,9.18748 -9.1875,0 z m -30.21875,33.15617 c -0.757254,0.0737 -1.448348,0.61855 -1.696778,1.33767 -0.248431,0.7192 -0.041,1.5744 0.509278,2.0998 l 10.59375,10.5937 -10.59375,10.5626 c -0.769203,0.7305 -0.790675,2.1026 -0.04471,2.8568 0.745968,0.7542 2.118251,0.7479 2.857208,-0.013 L 50,1015.1748 l 10.59375,10.5936 c 0.738957,0.7611 2.11124,0.7674 2.857208,0.013 0.745967,-0.7542 0.724495,-2.1263 -0.04471,-2.8568 L 52.8125,1012.3622 63.40625,1001.7685 c 0.615105,-0.5777 0.798855,-1.566 0.432551,-2.32616 -0.366304,-0.76025 -1.253636,-1.23233 -2.088801,-1.11131 -0.436738,0.0631 -0.8505,0.27557 -1.15625,0.59375 L 50,1009.5186 39.40625,998.92478 c -0.416546,-0.42679 -1.031424,-0.65146 -1.625,-0.59375 z" fill="#000000" fill-opacity="1" stroke="none" marker="none" visibility="visible" display="inline" overflow="visible"></path></g></svg>