<svg xmlns="http://www.w3.org/2000/svg" viewBox="0 0 512 512" x="0px" y="0px"><title>skill Yin Yang</title><circle cx="256" cy="161.46" r="25"></circle><path d="M256,29.52C130.92,29.52,29.52,130.92,29.52,256S130.92,482.48,256,482.48,482.48,381.08,482.48,256,381.08,29.52,256,29.52Zm0,345.09a25,25,0,1,1,25-25A25,25,0,0,1,256,374.61Zm28.31-131.16-1,.35c-8.46,3-17.45,4.18-26.4,4.79-20.86,1.43-78.42,10.58-99.09,67.61a132.08,132.08,0,0,0-.52,89.57A179.18,179.18,0,0,1,76.69,251.91c2.14-96.13,80.85-174,177-175.25a178.68,178.68,0,0,1,78.09,16.73,34.06,34.06,0,0,1,18.39,21.35c.1.32.19.64.28,1C365.43,169,336.36,224.73,284.31,243.45Z"></path></svg>