<?xml version="1.0" encoding="UTF-8"?>
<svg width="1200pt" height="1200pt" version="1.1" viewBox="0 0 1200 1200" xmlns="http://www.w3.org/2000/svg">
 <g>
  <path d="m247.26 855.37c0 19.301-15.973 34.945-35.676 34.945-19.707 0-35.68-15.645-35.68-34.945 0-19.297 15.973-34.941 35.68-34.941 19.703 0 35.676 15.645 35.676 34.941"/>
  <path d="m211.59 948.68c52.488 0 95.23-41.879 95.23-93.277 0-51.406-42.742-93.266-95.23-93.266-52.547 0-95.242 41.855-95.242 93.266 0.007812 51.387 42.703 93.277 95.242 93.277zm0-174.75c46.008 0 83.41 36.504 83.41 81.445 0 44.93-37.402 81.469-83.41 81.469-46.008 0-83.41-36.539-83.41-81.469 0.007813-44.941 37.398-81.445 83.41-81.445z"/>
  <path d="m60 1028.9h303.17v-452.03h-303.17zm283.66-438.34c5.0898 0 9.1914 4.0078 9.1914 8.9648 0 4.9336-4.1055 8.9414-9.1914 8.9414-5.1016 0-9.1914-3.9961-9.1914-8.9414-0.011719-4.957 4.0898-8.9648 9.1914-8.9648zm0 407.16c5.0898 0 9.1914 4.0312 9.1914 9 0 4.9219-4.1055 8.9531-9.1914 8.9531-5.1016 0-9.1914-4.0312-9.1914-8.9531-0.011719-4.9688 4.0898-9 9.1914-9zm-132.07-383.76c24.602 0 44.543 19.465 44.543 43.559 0 24.07-19.945 43.586-44.543 43.586-24.648 0-44.566-19.523-44.566-43.586-0.003906-24.094 19.918-43.559 44.566-43.559zm0 127.55c64.246 0 116.35 50.965 116.35 113.82 0 62.891-52.105 113.84-116.35 113.84-64.262 0-116.38-50.953-116.38-113.84-0.003907-62.844 52.113-113.82 116.38-113.82zm-132.04-150.95c5.0273 0 9.1328 4.0078 9.1328 8.9648 0 4.9336-4.1055 8.9414-9.1328 8.9414-5.1016 0-9.1797-3.9961-9.1797-8.9414-0.011719-4.957 4.0703-8.9648 9.1797-8.9648zm0 407.16c5.0273 0 9.1328 4.0312 9.1328 9 0 4.9219-4.1055 8.9531-9.1328 8.9531-5.1016 0-9.1797-4.0312-9.1797-8.9531-0.011719-4.9688 4.0703-9 9.1797-9z"/>
  <path d="m228.06 657.55c0 8.8945-7.375 16.105-16.473 16.105-9.1016 0-16.477-7.2109-16.477-16.105s7.375-16.102 16.477-16.102c9.0977 0 16.473 7.207 16.473 16.102"/>
  <path d="m601.54 316.31c-38.832 23.652-51.191 74.363-27.492 113.16 23.652 38.891 74.258 51.203 113.12 27.562 39-23.699 51.289-74.293 27.637-113.18-23.605-38.867-74.281-51.203-113.27-27.539z"/>
  <path d="m1024.2 811.75-15.793-168.52c0.14453-15.672-4.1523-72.758-64.922-151.45-67.754-87.742-130.75-91.633-148.55-90.719-36.684 1.8711-65.207 31.738-66.059 67.824h-0.058594l0.058594 2.4844c0.023437 0.94922-0.085938 1.8828 0 2.832 0 0.085938 0.035156 0.17969 0.035156 0.26562l1.2461 136.25-65.734 14.039c-3.6953-1.7383-8.7461-0.75781-13.488 0.9375l-230.84-185.19c6.8516-11.113 22.848-30.793 45.469-19.598 30.66 15.18 36.805-13.078 5.3984-38.219-34.141-27.336-103.56-35.832-111.2-65.461-7.6445-29.629-67.344-158.75-169-27.012-101.65 131.73 38.375 156.73 68.977 156.62 30.602-0.12109 49.598 43.355 68.508 64.727 18.91 21.371 48.527 12.023 26.074-13.777-18.625-21.406 2.6055-44.605 10.402-51.91l254.38 188.65-7.4297 1.5859 14.578 68.16 51.984-11.113c2.2305 2.7461 4.2227 6.168 5.6523 10.727 1.1875 4.7891 3.8164 9.0586 6.0859 10.754 6.9727 5.375 16.992 4.1055 22.32-2.8555 4.1289-5.2695 4.3086-12.301 1.1875-17.746 0 0-1.9688-2.8438-5.0039-7.2461l63.66-13.645c15.984-3.3711 27.445-17.508 27.59-33.816l-0.69531-98.941c1.0078-0.011719 1.9922 0.046874 3.0117 0 0.75781 0 30.863 36.371 31.199 36.742 32.258 41.809 35.773 67.715 35.902 68.699l-75.715 135.72c-3.457 6.2266-5.3516 13.188-5.4961 20.281l-4.7539 227.1h87.098l4.5-214.44 53.258-95.605 11.16 117.14c1.0547 9.6367 5.2695 18.66 12.023 25.621l126.16 130.26 62.594-60.637zm-775.98-453.16-16.188-12.492 26.723-34.633 16.188 12.492zm31.477 24.285-4.1523-3.2031 26.723-34.633 4.1523 3.2031zm29.402 22.691-4.1523-3.2031 26.723-34.633 4.1523 3.2031zm29.398 22.695-4.1523-3.2031 26.723-34.633 4.1523 3.2031z"/>
  <path d="m469.3 277.99c2.4727-2.4375 5.207-5.125 8.1836-8.0508 2.9531-2.3633 6.1328-4.9062 9.5391-7.6445 3.4062-2.7734 7.043-5.7109 10.859-8.8203 3.7305-3.2148 8.6055-5.8203 13.176-8.9883 4.7031-3.0703 9.6016-6.2891 14.676-9.6016 5.375-2.7969 10.945-5.6992 16.668-8.6758 2.8672-1.5 5.7734-3.0234 8.7227-4.5586 3-1.4297 6.168-2.5312 9.3125-3.8398 6.3242-2.543 12.793-5.1484 19.367-7.8008 13.645-3.7188 27.574-8.8555 42.445-11.004 14.699-3.4688 29.93-4.1758 45.254-5.7344 15.254 0.16797 30.758-0.50391 45.793 1.6445 15.254 0.82812 29.773 4.7031 44.184 7.2852 6.9844 2.1016 13.801 4.1523 20.555 6.1797 3.3008 1.0547 6.7578 1.9219 9.9727 3.0977 3.2266 1.3086 6.2891 2.6055 9.4219 3.875 6.2539 2.5547 12.254 5.0508 18.133 7.4531 5.6055 2.9766 11.004 5.8438 16.246 8.5938 10.645 5.1719 19.523 11.352 27.469 16.754 4.0078 2.6758 7.7539 5.1836 11.23 7.5117 3.2148 2.6523 6.168 5.0898 8.832 7.2852 10.691 8.8555 16.766 13.906 16.766 13.906s-5.6523-5.5781-15.551-15.348c-2.4961-2.4492-5.2578-5.1602-8.2578-8.1016-3.2539-2.6406-6.793-5.4844-10.598-8.5312-7.5859-6.1562-16.055-13.223-26.363-19.414-5.0625-3.2773-10.32-6.6953-15.781-10.234-5.7734-2.9883-11.746-6.0859-17.891-9.2656-3.0977-1.5977-6.2266-3.2148-9.3711-4.8477-3.2383-1.5117-6.6367-2.7109-10.008-4.1055-6.7578-2.6992-13.754-5.4609-20.762-8.2812-14.641-4.0078-29.578-9.3711-45.504-11.688-15.742-3.625-32.074-4.4141-48.457-5.9766-16.355 0.16797-32.941-0.42188-49.055 1.8828-16.309 0.98438-31.859 5.0898-47.207 7.9688-7.4648 2.2578-14.809 4.4766-21.996 6.6602-3.5898 1.1406-7.2109 2.0898-10.656 3.3711-3.3945 1.4023-6.7578 2.7969-10.078 4.1641-6.6484 2.7617-13.117 5.4492-19.367 8.0508-5.9883 3.1914-11.746 6.2656-17.316 9.2266-5.5078 3.1328-10.98 5.5195-15.852 8.9414-4.9062 3.3242-9.5742 6.4688-13.957 9.4219-4.3789 3-8.4844 5.8086-12.277 8.3984-3.2383 2.6641-6.2031 5.125-8.8906 7.332-10.703 8.8555-16.824 13.922-16.824 13.922l29.762 32.941c-0.085938-0.019531 5.5625-5.5859 15.453-15.355z"/>
 </g>
</svg>
